<?xml version="1.0" standalone="no"?>
<!DOCTYPE svg PUBLIC "-//W3C//DTD SVG 20010904//EN"
 "http://www.w3.org/TR/2001/REC-SVG-20010904/DTD/svg10.dtd">
<svg version="1.0" xmlns="http://www.w3.org/2000/svg"
 width="127.000000pt" height="126.000000pt" viewBox="0 0 127.000000 126.000000"
 preserveAspectRatio="xMidYMid meet">
 <svg xmlns="http://www.w3.org/2000/svg" viewBox="0 0 100 100" class="logo-svg">
  <path d="M50 5 L11 27 L11 72 L50 95 L89 72 L89 27 Z" fill="currentColor"/>
</svg>


<g transform="translate(0.000000,126.000000) scale(0.100000,-0.100000)"
fill="#000000" stroke="none">
<path d="M495 1225 c-5 -2 -35 -11 -65 -20 -161 -49 -309 -203 -372 -384 -20
-56 -23 -86 -23 -196 1 -118 3 -137 28 -200 69 -174 193 -294 375 -363 58 -22
83 -26 192 -26 106 -1 136 3 198 23 190 62 347 228 396 417 20 78 21 241 1
314 -66 249 -294 440 -524 440 -186 0 -338 -174 -357 -409 -12 -148 46 -312
161 -454 30 -37 55 -69 55 -73 0 -12 -148 -74 -190 -80 l-45 -6 -72 75 c-40
42 -79 91 -89 108 -16 31 -13 30 46 -20 67 -55 147 -101 178 -101 10 0 40 7
67 17 l49 16 -37 13 c-145 50 -285 170 -326 278 -25 68 -27 145 -4 212 18 54
82 166 98 171 6 2 9 -18 7 -51 -4 -59 24 -141 60 -173 20 -18 20 -18 14 52
-14 139 28 249 136 358 63 63 68 70 43 62z m197 -102 c130 -100 188 -285 143
-457 -22 -84 -87 -202 -146 -266 l-51 -55 -57 62 c-64 69 -123 177 -146 268
-44 173 22 363 155 451 46 30 59 30 102 -3z m172 -24 c19 -17 48 -56 63 -87
25 -52 28 -67 28 -164 0 -60 3 -108 7 -108 4 0 20 21 35 47 21 36 29 65 33
123 l5 75 38 -55 c84 -125 100 -251 46 -360 -54 -107 -180 -211 -303 -250
l-39 -13 24 -13 c13 -7 43 -16 66 -20 51 -8 113 23 199 100 l58 51 -25 -45
c-13 -24 -53 -73 -87 -108 -62 -62 -65 -64 -103 -58 -45 7 -155 50 -183 71
-17 13 -16 17 31 72 110 129 162 250 171 399 7 134 -29 254 -103 343 -36 42
-9 42 39 0z m-135 -906 l94 -47 -34 -15 c-47 -21 -260 -21 -308 0 l-34 14 89
46 c49 25 91 47 94 48 3 0 47 -20 99 -46z"/>
</g>
</svg>
