<?xml version="1.0" encoding="UTF-8"?>
<!DOCTYPE svg PUBLIC "-//W3C//DTD SVG 1.1//EN" "http://www.w3.org/Graphics/SVG/1.1/DTD/svg11.dtd">
<svg xmlns="http://www.w3.org/2000/svg" version="1.1" width="500px" height="500px" style="shape-rendering:geometricPrecision; text-rendering:geometricPrecision; image-rendering:optimizeQuality; fill-rule:evenodd; clip-rule:evenodd" xmlns:xlink="http://www.w3.org/1999/xlink">
<g><path style="opacity:0.99" fill="#535e66" d="M 212.5,154.5 C 212.082,153.778 211.416,153.278 210.5,153C 213.922,149.318 217.256,145.651 220.5,142C 218.527,141.505 216.527,141.338 214.5,141.5C 218.67,140.376 223.004,139.376 227.5,138.5C 228.5,138.833 229.5,139.167 230.5,139.5C 224.293,144.243 218.293,149.243 212.5,154.5 Z"/></g>
<g><path style="opacity:1" fill="#34414c" d="M 249.5,139.5 C 248.061,142.161 248.395,142.661 250.5,141C 256.5,140.333 262.5,140.333 268.5,141C 266.833,143 265.167,145 263.5,147C 261.953,147.333 260.62,146.833 259.5,145.5C 255.995,147.492 254.829,150.492 256,154.5C 258.035,157.841 260.701,160.507 264,162.5C 266.107,161.343 267.274,162.176 267.5,165C 267.011,166.138 266.678,167.305 266.5,168.5C 261.809,164.803 257.142,161.136 252.5,157.5C 251.726,156.853 250.726,156.52 249.5,156.5C 247.645,156.34 246.312,157.007 245.5,158.5C 243.621,158.607 243.288,158.107 244.5,157C 242.65,154.967 241.984,154.967 242.5,157C 236.906,158.382 231.906,157.382 227.5,154C 228.45,151.09 230.45,149.923 233.5,150.5C 233.215,148.712 233.548,147.045 234.5,145.5C 235.506,145.938 235.506,146.604 234.5,147.5C 235.274,148.711 236.107,148.711 237,147.5C 237.333,148.5 237.667,149.5 238,150.5C 239.301,148.635 239.635,146.635 239,144.5C 238.549,146.929 237.715,147.096 236.5,145C 238.618,143.918 240.618,142.751 242.5,141.5C 244.599,140.388 246.933,139.721 249.5,139.5 Z"/></g>
<g><path style="opacity:1" fill="#323e46" d="M 289.5,143.5 C 288.761,143.369 288.094,143.536 287.5,144C 288.337,145.011 288.67,146.178 288.5,147.5C 286.058,147.119 285.391,147.786 286.5,149.5C 284.009,150.541 284.009,151.374 286.5,152C 280.974,153.703 281.307,155.869 287.5,158.5C 288.429,159.689 288.762,161.022 288.5,162.5C 287.153,161.972 285.819,161.805 284.5,162C 289.056,166.955 292.722,172.455 295.5,178.5C 293.079,177.109 290.412,176.275 287.5,176C 288.888,175.111 288.722,174.611 287,174.5C 285.56,175.148 284.06,175.481 282.5,175.5C 282.665,178.518 282.498,181.518 282,184.5C 278.465,180.507 277.632,181.174 279.5,186.5C 275.669,180.184 271.335,174.184 266.5,168.5C 266.678,167.305 267.011,166.138 267.5,165C 267.274,162.176 266.107,161.343 264,162.5C 260.701,160.507 258.035,157.841 256,154.5C 254.829,150.492 255.995,147.492 259.5,145.5C 260.62,146.833 261.953,147.333 263.5,147C 265.167,145 266.833,143 268.5,141C 262.5,140.333 256.5,140.333 250.5,141C 248.395,142.661 248.061,142.161 249.5,139.5C 263.282,137.283 276.616,138.616 289.5,143.5 Z"/></g>
<g><path style="opacity:1" fill="#3f4d58" d="M 214.5,141.5 C 216.527,141.338 218.527,141.505 220.5,142C 217.256,145.651 213.922,149.318 210.5,153C 211.416,153.278 212.082,153.778 212.5,154.5C 205.362,162.629 199.028,171.296 193.5,180.5C 193.67,179.178 193.337,178.011 192.5,177C 194.454,175.102 195.454,173.102 195.5,171C 194.833,170.667 194.167,170.333 193.5,170C 196.523,168.672 198.856,167.172 200.5,165.5C 199.332,163.783 197.665,163.116 195.5,163.5C 195.799,161.396 195.466,159.396 194.5,157.5C 191.387,160.192 187.721,161.192 183.5,160.5C 183.741,163.999 182.908,164.332 181,161.5C 178.904,162.715 179.071,163.549 181.5,164C 181.167,164.333 180.833,164.667 180.5,165C 182.439,165.908 183.439,167.408 183.5,169.5C 181.5,169.5 179.5,169.5 177.5,169.5C 177.5,171.5 177.5,173.5 177.5,175.5C 178.552,175.351 179.552,175.517 180.5,176C 178.899,176.273 177.399,176.773 176,177.5C 175.601,177.272 175.435,176.938 175.5,176.5C 174.609,173.425 173.443,170.425 172,167.5C 170.989,166.663 169.822,166.33 168.5,166.5C 181.759,154.443 197.092,146.11 214.5,141.5 Z"/></g>
<g><path style="opacity:1" fill="#313c45" d="M 289.5,143.5 C 296.497,145.166 302.831,148.166 308.5,152.5C 307.761,152.369 307.094,152.536 306.5,153C 307.711,154.113 307.711,155.28 306.5,156.5C 307.025,157.192 307.692,157.692 308.5,158C 307.062,159.241 305.562,159.741 304,159.5C 303.125,157.487 301.791,157.487 300,159.5C 298.566,163.406 298.233,167.406 299,171.5C 300.385,170.449 301.385,169.116 302,167.5C 302.402,168.872 302.902,170.205 303.5,171.5C 302.384,171.402 301.384,171.902 300.5,173C 300.989,174.138 301.322,175.305 301.5,176.5C 297.534,171.533 293.201,166.866 288.5,162.5C 288.762,161.022 288.429,159.689 287.5,158.5C 281.307,155.869 280.974,153.703 286.5,152C 284.009,151.374 284.009,150.541 286.5,149.5C 285.391,147.786 286.058,147.119 288.5,147.5C 288.67,146.178 288.337,145.011 287.5,144C 288.094,143.536 288.761,143.369 289.5,143.5 Z"/></g>
<g><path style="opacity:1" fill="#3c4852" d="M 242.5,141.5 C 240.618,142.751 238.618,143.918 236.5,145C 237.715,147.096 238.549,146.929 239,144.5C 239.635,146.635 239.301,148.635 238,150.5C 237.667,149.5 237.333,148.5 237,147.5C 236.107,148.711 235.274,148.711 234.5,147.5C 235.506,146.604 235.506,145.938 234.5,145.5C 233.548,147.045 233.215,148.712 233.5,150.5C 230.45,149.923 228.45,151.09 227.5,154C 231.906,157.382 236.906,158.382 242.5,157C 241.984,154.967 242.65,154.967 244.5,157C 243.288,158.107 243.621,158.607 245.5,158.5C 230.133,167.251 219.466,179.917 213.5,196.5C 213.335,193.482 213.502,190.482 214,187.5C 214.605,185.519 215.605,185.185 217,186.5C 217.778,183.142 218.945,179.975 220.5,177C 220.204,175.112 219.704,173.278 219,171.5C 217.663,172.765 216.163,173.265 214.5,173C 216.001,171.748 217.668,170.748 219.5,170C 216.776,169.73 214.109,169.23 211.5,168.5C 209.467,170.868 207.133,172.868 204.5,174.5C 212.87,158.457 225.537,147.457 242.5,141.5 Z"/></g>
<g><path style="opacity:0.153" fill="#a2a6a9" d="M 252.5,157.5 C 250.097,157.448 247.764,157.781 245.5,158.5C 246.312,157.007 247.645,156.34 249.5,156.5C 250.726,156.52 251.726,156.853 252.5,157.5 Z"/></g>
<g><path style="opacity:1" fill="#2b353d" d="M 308.5,152.5 C 314.241,154.236 319.241,157.236 323.5,161.5C 324.192,164.935 326.192,166.935 329.5,167.5C 336.541,172.544 342.208,178.878 346.5,186.5C 344.144,187.575 341.811,187.575 339.5,186.5C 338.943,184.765 338.61,183.098 338.5,181.5C 335.547,181.47 332.547,181.137 329.5,180.5C 327.525,179.251 327.191,177.751 328.5,176C 326.866,175.506 325.199,175.34 323.5,175.5C 323.223,178.448 323.556,181.281 324.5,184C 323.833,184.667 323.167,185.333 322.5,186C 323.833,186 325.167,186 326.5,186C 325.359,186.741 325.359,187.575 326.5,188.5C 328.305,190.903 330.638,192.57 333.5,193.5C 333.944,195.912 334.277,198.246 334.5,200.5C 332.539,197.537 330.206,194.871 327.5,192.5C 327.167,189.833 326.833,189.833 326.5,192.5C 325.566,193.772 324.899,195.272 324.5,197C 325.459,199.12 325.626,201.287 325,203.5C 324.51,202.207 324.343,200.873 324.5,199.5C 322.833,199.5 321.167,199.5 319.5,199.5C 319.167,203.5 318.833,203.5 318.5,199.5C 317.5,199.5 316.5,199.5 315.5,199.5C 315.134,194.532 314.634,194.866 314,200.5C 312.334,199.66 312.167,200.16 313.5,202C 312.874,202.75 312.374,203.584 312,204.5C 311.827,210.348 311.327,216.015 310.5,221.5C 310.691,213.799 310.358,206.132 309.5,198.5C 309.232,195.881 309.565,193.381 310.5,191C 309.272,190.221 308.272,189.221 307.5,188C 308.187,186.838 308.353,185.672 308,184.5C 307.23,185.598 306.397,185.598 305.5,184.5C 305.771,182.62 305.104,181.287 303.5,180.5C 302.326,179.486 301.66,178.153 301.5,176.5C 301.322,175.305 300.989,174.138 300.5,173C 301.384,171.902 302.384,171.402 303.5,171.5C 302.902,170.205 302.402,168.872 302,167.5C 301.385,169.116 300.385,170.449 299,171.5C 298.233,167.406 298.566,163.406 300,159.5C 301.791,157.487 303.125,157.487 304,159.5C 305.562,159.741 307.062,159.241 308.5,158C 307.692,157.692 307.025,157.192 306.5,156.5C 307.711,155.28 307.711,154.113 306.5,153C 307.094,152.536 307.761,152.369 308.5,152.5 Z"/></g>
<g><path style="opacity:1" fill="#35444f" d="M 193.5,180.5 C 191.159,187.875 189.159,195.209 187.5,202.5C 187.44,201.957 187.107,201.624 186.5,201.5C 185.863,205.571 185.029,209.571 184,213.5C 181.43,212.991 179.097,211.991 177,210.5C 176.812,208.939 177.645,208.272 179.5,208.5C 179.666,204.486 179.499,200.486 179,196.5C 178.105,198.804 177.271,201.138 176.5,203.5C 175.646,202.478 174.646,201.645 173.5,201C 174.552,198.66 174.218,195.993 172.5,193C 173.167,191.667 173.833,190.333 174.5,189C 174.361,187.699 173.695,186.866 172.5,186.5C 173.241,183.587 173.741,180.587 174,177.5C 174.383,176.944 174.883,176.611 175.5,176.5C 175.435,176.938 175.601,177.272 176,177.5C 177.399,176.773 178.899,176.273 180.5,176C 179.552,175.517 178.552,175.351 177.5,175.5C 177.5,173.5 177.5,171.5 177.5,169.5C 179.5,169.5 181.5,169.5 183.5,169.5C 183.439,167.408 182.439,165.908 180.5,165C 180.833,164.667 181.167,164.333 181.5,164C 179.071,163.549 178.904,162.715 181,161.5C 182.908,164.332 183.741,163.999 183.5,160.5C 187.721,161.192 191.387,160.192 194.5,157.5C 195.466,159.396 195.799,161.396 195.5,163.5C 197.665,163.116 199.332,163.783 200.5,165.5C 198.856,167.172 196.523,168.672 193.5,170C 194.167,170.333 194.833,170.667 195.5,171C 195.454,173.102 194.454,175.102 192.5,177C 193.337,178.011 193.67,179.178 193.5,180.5 Z"/></g>
<g><path style="opacity:0.782" fill="#66696d" d="M 323.5,161.5 C 325.882,163.215 327.882,165.215 329.5,167.5C 326.192,166.935 324.192,164.935 323.5,161.5 Z"/></g>
<g><path style="opacity:1" fill="#354651" d="M 168.5,166.5 C 169.822,166.33 170.989,166.663 172,167.5C 173.443,170.425 174.609,173.425 175.5,176.5C 174.883,176.611 174.383,176.944 174,177.5C 173.741,180.587 173.241,183.587 172.5,186.5C 172.167,186.5 171.833,186.5 171.5,186.5C 168.9,187.919 166.4,189.585 164,191.5C 163.504,193.035 163.67,194.535 164.5,196C 161.098,199.557 159.264,198.723 159,193.5C 158.667,194.833 158.333,196.167 158,197.5C 157.422,193.279 156.589,189.112 155.5,185C 155.735,184.127 156.069,183.293 156.5,182.5C 160.04,179.575 163.707,177.575 167.5,176.5C 167.154,175.304 166.654,175.304 166,176.5C 165.833,175.667 165.667,174.833 165.5,174C 166.312,171.378 167.312,168.878 168.5,166.5 Z"/></g>
<g><path style="opacity:1" fill="#33414c" d="M 213.5,196.5 C 211.619,201.853 209.953,207.187 208.5,212.5C 207.699,210.958 207.366,209.292 207.5,207.5C 205.473,207.338 203.473,207.505 201.5,208C 202.517,209.049 202.684,210.216 202,211.5C 200.688,209.342 199.022,209.009 197,210.5C 196.727,204.874 196.227,199.208 195.5,193.5C 195.5,193.167 195.5,192.833 195.5,192.5C 198.154,190.166 199.488,187.166 199.5,183.5C 200.41,180.008 202.076,177.008 204.5,174.5C 207.133,172.868 209.467,170.868 211.5,168.5C 214.109,169.23 216.776,169.73 219.5,170C 217.668,170.748 216.001,171.748 214.5,173C 216.163,173.265 217.663,172.765 219,171.5C 219.704,173.278 220.204,175.112 220.5,177C 218.945,179.975 217.778,183.142 217,186.5C 215.605,185.185 214.605,185.519 214,187.5C 213.502,190.482 213.335,193.482 213.5,196.5 Z"/></g>
<g><path style="opacity:1" fill="#333c44" d="M 295.5,178.5 C 298.909,183.323 301.243,188.656 302.5,194.5C 301.778,194.918 301.278,195.584 301,196.5C 300.683,194.699 300.016,194.366 299,195.5C 298.529,193.754 297.862,192.087 297,190.5C 295.326,191.676 293.826,193.01 292.5,194.5C 291.24,196.353 291.24,198.186 292.5,200C 290.934,201.784 289.601,203.784 288.5,206C 289.477,207.497 290.477,208.997 291.5,210.5C 291.518,212.373 291.018,212.706 290,211.5C 289.51,212.793 289.343,214.127 289.5,215.5C 289.5,216.833 289.5,218.167 289.5,219.5C 288.193,207.952 284.86,196.952 279.5,186.5C 277.632,181.174 278.465,180.507 282,184.5C 282.498,181.518 282.665,178.518 282.5,175.5C 284.06,175.481 285.56,175.148 287,174.5C 288.722,174.611 288.888,175.111 287.5,176C 290.412,176.275 293.079,177.109 295.5,178.5 Z"/></g>
<g><path style="opacity:0.078" fill="#a7a9af" d="M 303.5,180.5 C 305.104,181.287 305.771,182.62 305.5,184.5C 304.326,183.486 303.66,182.153 303.5,180.5 Z"/></g>
<g><path style="opacity:0.818" fill="#7d838b" d="M 199.5,183.5 C 199.488,187.166 198.154,190.166 195.5,192.5C 196.075,189.088 197.408,186.088 199.5,183.5 Z"/></g>
<g><path style="opacity:1" fill="#293139" d="M 346.5,186.5 C 360.767,205.967 368.1,227.967 368.5,252.5C 367.679,249.359 367.179,246.025 367,242.5C 367.266,245.901 365.766,247.567 362.5,247.5C 363.75,249.968 363.583,252.301 362,254.5C 361.333,255.833 360.667,255.833 360,254.5C 358.059,246.625 357.226,246.958 357.5,255.5C 356.178,255.33 355.011,255.663 354,256.5C 353.553,259.975 352.72,263.309 351.5,266.5C 350.178,266.67 349.011,266.337 348,265.5C 347.108,268.453 347.608,271.119 349.5,273.5C 348.5,274.5 347.5,275.5 346.5,276.5C 345.304,276.154 345.304,275.654 346.5,275C 345.552,274.517 344.552,274.351 343.5,274.5C 342.789,272.158 341.456,271.825 339.5,273.5C 342.093,268.647 344.426,263.647 346.5,258.5C 347.58,256.639 348.914,255.973 350.5,256.5C 348.827,254.477 348.16,252.144 348.5,249.5C 348.558,241.74 347.725,234.073 346,226.5C 342.962,217.428 339.128,208.762 334.5,200.5C 334.277,198.246 333.944,195.912 333.5,193.5C 330.638,192.57 328.305,190.903 326.5,188.5C 325.359,187.575 325.359,186.741 326.5,186C 325.167,186 323.833,186 322.5,186C 323.167,185.333 323.833,184.667 324.5,184C 323.556,181.281 323.223,178.448 323.5,175.5C 325.199,175.34 326.866,175.506 328.5,176C 327.191,177.751 327.525,179.251 329.5,180.5C 332.547,181.137 335.547,181.47 338.5,181.5C 338.61,183.098 338.943,184.765 339.5,186.5C 341.811,187.575 344.144,187.575 346.5,186.5 Z"/></g>
<g><path style="opacity:1" fill="#424e5a" d="M 168.5,166.5 C 167.312,168.878 166.312,171.378 165.5,174C 165.667,174.833 165.833,175.667 166,176.5C 166.654,175.304 167.154,175.304 167.5,176.5C 163.707,177.575 160.04,179.575 156.5,182.5C 156.069,183.293 155.735,184.127 155.5,185C 156.589,189.112 157.422,193.279 158,197.5C 158.333,196.167 158.667,194.833 159,193.5C 159.264,198.723 161.098,199.557 164.5,196C 163.67,194.535 163.504,193.035 164,191.5C 166.4,189.585 168.9,187.919 171.5,186.5C 170.232,187.787 170.565,188.787 172.5,189.5C 171.92,192.311 171.254,194.977 170.5,197.5C 170.662,195.473 170.495,193.473 170,191.5C 166.812,195.901 163.645,200.234 160.5,204.5C 158.059,204.107 155.893,202.774 154,200.5C 152.118,201.093 151.118,202.427 151,204.5C 149.989,203.663 148.822,203.33 147.5,203.5C 147.543,208.176 145.876,209.176 142.5,206.5C 141.261,208.007 141.595,209.174 143.5,210C 142.383,211.892 140.716,212.725 138.5,212.5C 138.649,213.552 138.483,214.552 138,215.5C 137.23,214.402 136.397,214.402 135.5,215.5C 142.331,196.296 153.331,179.962 168.5,166.5 Z"/></g>
<g><path style="opacity:1" fill="#6b7074" d="M 305.5,184.5 C 306.397,185.598 307.23,185.598 308,184.5C 308.353,185.672 308.187,186.838 307.5,188C 308.272,189.221 309.272,190.221 310.5,191C 309.565,193.381 309.232,195.881 309.5,198.5C 308.238,193.929 306.904,189.263 305.5,184.5 Z"/></g>
<g><path style="opacity:1" fill="#2f3941" d="M 326.5,192.5 C 326.833,192.5 327.167,192.5 327.5,192.5C 330.026,211.436 324.193,227.102 310,239.5C 309.009,238.57 308.509,237.404 308.5,236C 309.291,231.175 309.957,226.342 310.5,221.5C 311.327,216.015 311.827,210.348 312,204.5C 312.374,203.584 312.874,202.75 313.5,202C 312.167,200.16 312.334,199.66 314,200.5C 314.634,194.866 315.134,194.532 315.5,199.5C 316.5,199.5 317.5,199.5 318.5,199.5C 318.833,203.5 319.167,203.5 319.5,199.5C 321.167,199.5 322.833,199.5 324.5,199.5C 324.343,200.873 324.51,202.207 325,203.5C 325.626,201.287 325.459,199.12 324.5,197C 324.899,195.272 325.566,193.772 326.5,192.5 Z"/></g>
<g><path style="opacity:1" fill="#3b4853" d="M 160.5,204.5 C 155.92,213.405 152.42,222.739 150,232.5C 149.501,237.823 149.334,243.156 149.5,248.5C 148.675,244.353 148.175,240.019 148,235.5C 147.71,237.044 147.044,238.377 146,239.5C 145.749,237.567 145.249,235.734 144.5,234C 146.259,232.236 146.426,230.069 145,227.5C 144.282,228.451 143.449,228.617 142.5,228C 141.929,226.795 141.262,225.628 140.5,224.5C 139.506,229.456 139.173,234.456 139.5,239.5C 140.552,239.351 141.552,239.517 142.5,240C 140.843,240.231 139.509,241.065 138.5,242.5C 134.826,240.178 133.826,237.345 135.5,234C 133.996,232.509 133.163,230.676 133,228.5C 132.79,230.058 132.29,231.391 131.5,232.5C 132.36,226.726 133.694,221.059 135.5,215.5C 136.397,214.402 137.23,214.402 138,215.5C 138.483,214.552 138.649,213.552 138.5,212.5C 140.716,212.725 142.383,211.892 143.5,210C 141.595,209.174 141.261,208.007 142.5,206.5C 145.876,209.176 147.543,208.176 147.5,203.5C 148.822,203.33 149.989,203.663 151,204.5C 151.118,202.427 152.118,201.093 154,200.5C 155.893,202.774 158.059,204.107 160.5,204.5 Z"/></g>
<g><path style="opacity:1" fill="#2a343c" d="M 302.5,194.5 C 304.524,199.568 306.024,204.902 307,210.5C 307.5,218.493 307.666,226.493 307.5,234.5C 306.671,227.011 306.171,219.344 306,211.5C 305.667,214.167 305.333,216.833 305,219.5C 304.693,216.124 302.86,214.79 299.5,215.5C 298.51,224.803 297.51,224.803 296.5,215.5C 295.914,215.291 295.414,214.957 295,214.5C 294.74,218.25 294.073,221.916 293,225.5C 292.148,221.941 290.981,218.607 289.5,215.5C 289.343,214.127 289.51,212.793 290,211.5C 291.018,212.706 291.518,212.373 291.5,210.5C 290.477,208.997 289.477,207.497 288.5,206C 289.601,203.784 290.934,201.784 292.5,200C 291.24,198.186 291.24,196.353 292.5,194.5C 293.826,193.01 295.326,191.676 297,190.5C 297.862,192.087 298.529,193.754 299,195.5C 300.016,194.366 300.683,194.699 301,196.5C 301.278,195.584 301.778,194.918 302.5,194.5 Z"/></g>
<g><path style="opacity:1" fill="#3c4750" d="M 171.5,186.5 C 171.833,186.5 172.167,186.5 172.5,186.5C 173.695,186.866 174.361,187.699 174.5,189C 173.833,190.333 173.167,191.667 172.5,193C 174.218,195.993 174.552,198.66 173.5,201C 174.646,201.645 175.646,202.478 176.5,203.5C 177.271,201.138 178.105,198.804 179,196.5C 179.499,200.486 179.666,204.486 179.5,208.5C 177.645,208.272 176.812,208.939 177,210.5C 179.097,211.991 181.43,212.991 184,213.5C 185.029,209.571 185.863,205.571 186.5,201.5C 187.107,201.624 187.44,201.957 187.5,202.5C 187.543,205.867 187.21,209.201 186.5,212.5C 187.608,221.134 188.275,229.801 188.5,238.5C 185.386,237.909 182.886,236.242 181,233.5C 172.47,222.764 168.97,210.764 170.5,197.5C 171.254,194.977 171.92,192.311 172.5,189.5C 170.565,188.787 170.232,187.787 171.5,186.5 Z"/></g>
<g><path style="opacity:0.999" fill="#39444c" d="M 195.5,193.5 C 196.227,199.208 196.727,204.874 197,210.5C 199.022,209.009 200.688,209.342 202,211.5C 202.684,210.216 202.517,209.049 201.5,208C 203.473,207.505 205.473,207.338 207.5,207.5C 207.366,209.292 207.699,210.958 208.5,212.5C 208.027,224.595 208.693,236.595 210.5,248.5C 209.778,248.082 209.278,247.416 209,246.5C 207.701,246.966 206.201,246.966 204.5,246.5C 204.539,248.359 203.706,249.692 202,250.5C 201.667,248.5 201.333,246.5 201,244.5C 200.667,244.833 200.333,245.167 200,245.5C 198.877,242.044 199.71,239.21 202.5,237C 202,236.5 201.5,236 201,235.5C 198.298,238.44 195.465,241.274 192.5,244C 194.072,246.81 194.405,249.643 193.5,252.5C 187.744,232.616 188.411,212.949 195.5,193.5 Z"/></g>
<g><path style="opacity:1" fill="#26323a" d="M 307.5,234.5 C 307.5,235.167 307.5,235.833 307.5,236.5C 306.526,237.635 305.359,238.635 304,239.5C 303.45,234.93 302.283,234.597 300.5,238.5C 299.516,241.428 299.183,244.428 299.5,247.5C 298.448,247.351 297.448,247.517 296.5,248C 297.833,248.333 299.167,248.667 300.5,249C 300,249.5 299.5,250 299,250.5C 297.989,249.663 296.822,249.33 295.5,249.5C 295.773,247.549 295.107,246.049 293.5,245C 294.167,244.667 294.833,244.333 295.5,244C 293.473,242.604 293.14,240.938 294.5,239C 293.437,237.812 292.103,237.312 290.5,237.5C 290.657,238.873 290.49,240.207 290,241.5C 289.503,238.854 289.336,236.187 289.5,233.5C 289.5,228.833 289.5,224.167 289.5,219.5C 289.5,218.167 289.5,216.833 289.5,215.5C 290.981,218.607 292.148,221.941 293,225.5C 294.073,221.916 294.74,218.25 295,214.5C 295.414,214.957 295.914,215.291 296.5,215.5C 297.51,224.803 298.51,224.803 299.5,215.5C 302.86,214.79 304.693,216.124 305,219.5C 305.333,216.833 305.667,214.167 306,211.5C 306.171,219.344 306.671,227.011 307.5,234.5 Z"/></g>
<g><path style="opacity:0.016" fill="#b6cdce" d="M 131.5,232.5 C 131.706,235.495 131.04,238.162 129.5,240.5C 129.565,237.572 130.232,234.905 131.5,232.5 Z"/></g>
<g><path style="opacity:1" fill="#2d353d" d="M 289.5,233.5 C 289.336,236.187 289.503,238.854 290,241.5C 290.49,240.207 290.657,238.873 290.5,237.5C 292.103,237.312 293.437,237.812 294.5,239C 293.14,240.938 293.473,242.604 295.5,244C 294.833,244.333 294.167,244.667 293.5,245C 295.107,246.049 295.773,247.549 295.5,249.5C 296.822,249.33 297.989,249.663 299,250.5C 299.5,250 300,249.5 300.5,249C 299.167,248.667 297.833,248.333 296.5,248C 297.448,247.517 298.448,247.351 299.5,247.5C 299.183,244.428 299.516,241.428 300.5,238.5C 302.283,234.597 303.45,234.93 304,239.5C 305.359,238.635 306.526,237.635 307.5,236.5C 304.158,264.243 293.491,288.576 275.5,309.5C 274.239,307.514 274.572,305.681 276.5,304C 274.553,304.536 272.553,304.202 270.5,303C 273.671,299.817 274.171,296.317 272,292.5C 271.517,293.448 271.351,294.448 271.5,295.5C 267.065,293.739 264.899,295.406 265,300.5C 263.308,300.676 261.808,301.176 260.5,302C 260.833,302.333 261.167,302.667 261.5,303C 260.736,305.069 260.236,307.236 260,309.5C 259.162,308.001 258.329,307.668 257.5,308.5C 255.139,308.674 252.806,309.007 250.5,309.5C 257.61,302.731 263.943,295.398 269.5,287.5C 270.906,287.027 271.573,286.027 271.5,284.5C 281.217,268.749 287.217,251.749 289.5,233.5 Z"/></g>
<g><path style="opacity:1" fill="#38434c" d="M 138.5,242.5 C 137.916,245.003 137.249,247.503 136.5,250C 136.57,250.765 136.903,251.265 137.5,251.5C 137.176,252.812 136.509,253.645 135.5,254C 135.905,254.945 136.572,255.612 137.5,256C 136.007,260.615 134.007,265.115 131.5,269.5C 134.326,274.155 136.326,279.155 137.5,284.5C 136.957,284.56 136.624,284.893 136.5,285.5C 137.551,288.798 138.051,292.132 138,295.5C 136.092,292.668 135.259,293.001 135.5,296.5C 130.597,283.754 128.263,270.42 128.5,256.5C 128.701,251.151 129.034,245.818 129.5,240.5C 131.04,238.162 131.706,235.495 131.5,232.5C 132.29,231.391 132.79,230.058 133,228.5C 133.163,230.676 133.996,232.509 135.5,234C 133.826,237.345 134.826,240.178 138.5,242.5 Z"/></g>
<g><path style="opacity:1" fill="#323f48" d="M 149.5,248.5 C 150.36,254.274 151.694,259.941 153.5,265.5C 151.803,263.624 149.803,262.124 147.5,261C 148.711,260.107 148.711,259.274 147.5,258.5C 146.459,260.991 145.626,260.991 145,258.5C 143.186,259.76 141.353,259.76 139.5,258.5C 141.279,256.807 141.779,254.807 141,252.5C 140.667,253.5 140.333,254.5 140,255.5C 139.667,253.5 139.333,251.5 139,249.5C 138.283,250.044 137.783,250.711 137.5,251.5C 136.903,251.265 136.57,250.765 136.5,250C 137.249,247.503 137.916,245.003 138.5,242.5C 139.509,241.065 140.843,240.231 142.5,240C 141.552,239.517 140.552,239.351 139.5,239.5C 139.173,234.456 139.506,229.456 140.5,224.5C 141.262,225.628 141.929,226.795 142.5,228C 143.449,228.617 144.282,228.451 145,227.5C 146.426,230.069 146.259,232.236 144.5,234C 145.249,235.734 145.749,237.567 146,239.5C 147.044,238.377 147.71,237.044 148,235.5C 148.175,240.019 148.675,244.353 149.5,248.5 Z"/></g>
<g><path style="opacity:0.99" fill="#5c666b" d="M 348.5,249.5 C 348.16,252.144 348.827,254.477 350.5,256.5C 348.914,255.973 347.58,256.639 346.5,258.5C 346.858,255.311 347.525,252.311 348.5,249.5 Z"/></g>
<g><path style="opacity:1" fill="#273036" d="M 368.5,252.5 C 369.861,272.698 365.861,291.698 356.5,309.5C 355.81,305.51 355.643,301.51 356,297.5C 357.016,296.366 357.683,296.699 358,298.5C 358.333,297.167 358.667,295.833 359,294.5C 360,293.167 361,293.167 362,294.5C 362.251,292.567 362.751,290.734 363.5,289C 362.833,288.333 362.167,287.667 361.5,287C 362.738,287.077 363.738,286.911 364.5,286.5C 362.048,284.849 359.882,282.849 358,280.5C 357.899,277.3 357.232,274.3 356,271.5C 355.064,275.722 352.898,279.056 349.5,281.5C 348.289,280.726 348.289,279.893 349.5,279C 348.451,278.508 347.451,278.674 346.5,279.5C 345.328,279.081 344.328,278.415 343.5,277.5C 343.874,276.25 343.874,275.25 343.5,274.5C 344.552,274.351 345.552,274.517 346.5,275C 345.304,275.654 345.304,276.154 346.5,276.5C 347.5,275.5 348.5,274.5 349.5,273.5C 347.608,271.119 347.108,268.453 348,265.5C 349.011,266.337 350.178,266.67 351.5,266.5C 352.72,263.309 353.553,259.975 354,256.5C 355.011,255.663 356.178,255.33 357.5,255.5C 357.226,246.958 358.059,246.625 360,254.5C 360.667,255.833 361.333,255.833 362,254.5C 363.583,252.301 363.75,249.968 362.5,247.5C 365.766,247.567 367.266,245.901 367,242.5C 367.179,246.025 367.679,249.359 368.5,252.5 Z"/></g>
<g><path style="opacity:1" fill="#2d3940" d="M 210.5,248.5 C 212.894,256.757 215.894,264.757 219.5,272.5C 217.518,271.509 215.518,270.509 213.5,269.5C 212.948,267.667 212.115,266 211,264.5C 210.508,265.549 210.674,266.549 211.5,267.5C 211.154,268.696 210.654,268.696 210,267.5C 209.18,272.173 206.68,273.506 202.5,271.5C 201.215,270.215 199.881,268.881 198.5,267.5C 199.326,266.549 199.492,265.549 199,264.5C 198.667,264.833 198.333,265.167 198,265.5C 197.392,263.934 196.558,262.6 195.5,261.5C 194.087,258.781 193.42,255.781 193.5,252.5C 194.405,249.643 194.072,246.81 192.5,244C 195.465,241.274 198.298,238.44 201,235.5C 201.5,236 202,236.5 202.5,237C 199.71,239.21 198.877,242.044 200,245.5C 200.333,245.167 200.667,244.833 201,244.5C 201.333,246.5 201.667,248.5 202,250.5C 203.706,249.692 204.539,248.359 204.5,246.5C 206.201,246.966 207.701,246.966 209,246.5C 209.278,247.416 209.778,248.082 210.5,248.5 Z"/></g>
<g><path style="opacity:1" fill="#2b3a41" d="M 153.5,265.5 C 155.405,268.304 157.071,271.304 158.5,274.5C 155.646,274.882 152.646,274.882 149.5,274.5C 149.5,275.833 149.5,277.167 149.5,278.5C 151.226,278.185 152.893,278.019 154.5,278C 152.751,279.292 150.918,280.458 149,281.5C 148.837,283.676 148.004,285.509 146.5,287C 147.624,287.249 148.624,287.749 149.5,288.5C 147.704,289.141 146.204,290.141 145,291.5C 144.667,291.167 144.333,290.833 144,290.5C 143.035,292.26 141.868,292.594 140.5,291.5C 141.025,290.808 141.692,290.308 142.5,290C 140.285,288.621 138.619,286.787 137.5,284.5C 136.326,279.155 134.326,274.155 131.5,269.5C 134.007,265.115 136.007,260.615 137.5,256C 136.572,255.612 135.905,254.945 135.5,254C 136.509,253.645 137.176,252.812 137.5,251.5C 137.783,250.711 138.283,250.044 139,249.5C 139.333,251.5 139.667,253.5 140,255.5C 140.333,254.5 140.667,253.5 141,252.5C 141.779,254.807 141.279,256.807 139.5,258.5C 141.353,259.76 143.186,259.76 145,258.5C 145.626,260.991 146.459,260.991 147.5,258.5C 148.711,259.274 148.711,260.107 147.5,261C 149.803,262.124 151.803,263.624 153.5,265.5 Z"/></g>
<g><path style="opacity:1" fill="#283139" d="M 219.5,272.5 C 221.459,276.142 223.459,279.809 225.5,283.5C 225.427,285.027 226.094,286.027 227.5,286.5C 227.427,288.027 228.094,289.027 229.5,289.5C 229.699,292.011 230.032,294.178 230.5,296C 229.929,297.205 229.262,298.372 228.5,299.5C 227.158,297.995 225.492,297.328 223.5,297.5C 223.5,296.167 223.5,294.833 223.5,293.5C 221.712,293.215 220.045,293.548 218.5,294.5C 219.762,296.575 219.595,298.575 218,300.5C 216.244,299.579 216.077,298.412 217.5,297C 213.991,294.747 213.325,292.08 215.5,289C 212.378,287.939 209.378,286.606 206.5,285C 208.14,282.946 209.806,282.613 211.5,284C 211.167,284.333 210.833,284.667 210.5,285C 211.448,285.483 212.448,285.649 213.5,285.5C 213.967,282.62 213.134,280.287 211,278.5C 208.187,278.531 205.353,278.865 202.5,279.5C 202.5,279.167 202.5,278.833 202.5,278.5C 202.414,277.504 202.748,276.671 203.5,276C 200.63,274.563 200.296,273.063 202.5,271.5C 206.68,273.506 209.18,272.173 210,267.5C 210.654,268.696 211.154,268.696 211.5,267.5C 210.674,266.549 210.508,265.549 211,264.5C 212.115,266 212.948,267.667 213.5,269.5C 215.518,270.509 217.518,271.509 219.5,272.5 Z"/></g>
<g><path style="opacity:0.714" fill="#60656c" d="M 195.5,261.5 C 196.558,262.6 197.392,263.934 198,265.5C 198.333,265.167 198.667,264.833 199,264.5C 199.492,265.549 199.326,266.549 198.5,267.5C 199.881,268.881 201.215,270.215 202.5,271.5C 200.296,273.063 200.63,274.563 203.5,276C 202.748,276.671 202.414,277.504 202.5,278.5C 199.216,273.336 196.882,267.669 195.5,261.5 Z"/></g>
<g><path style="opacity:0.047" fill="#b8b9bb" d="M 158.5,274.5 C 159.906,274.973 160.573,275.973 160.5,277.5C 159.094,277.027 158.427,276.027 158.5,274.5 Z"/></g>
<g><path style="opacity:1" fill="#2b363d" d="M 158.5,274.5 C 158.427,276.027 159.094,277.027 160.5,277.5C 161.488,278.795 162.488,280.128 163.5,281.5C 163.427,283.027 164.094,284.027 165.5,284.5C 176.055,296.105 188.388,305.272 202.5,312C 209.959,314.816 217.292,317.816 224.5,321C 215.836,326.112 206.503,328.778 196.5,329C 183.035,323.361 171.035,315.528 160.5,305.5C 160.167,305.667 159.833,305.833 159.5,306C 162.73,310.978 166.063,315.812 169.5,320.5C 165.694,320.556 161.861,320.556 158,320.5C 155.022,322.663 155.355,324.663 159,326.5C 159.333,328.167 159.667,329.833 160,331.5C 161.011,332.337 162.178,332.67 163.5,332.5C 163.64,334.124 162.973,335.29 161.5,336C 164.167,336.667 164.167,337.333 161.5,338C 162.252,338.671 162.586,339.504 162.5,340.5C 150.186,327.927 141.186,313.261 135.5,296.5C 135.259,293.001 136.092,292.668 138,295.5C 138.051,292.132 137.551,288.798 136.5,285.5C 136.624,284.893 136.957,284.56 137.5,284.5C 138.619,286.787 140.285,288.621 142.5,290C 141.692,290.308 141.025,290.808 140.5,291.5C 141.868,292.594 143.035,292.26 144,290.5C 144.333,290.833 144.667,291.167 145,291.5C 146.204,290.141 147.704,289.141 149.5,288.5C 148.624,287.749 147.624,287.249 146.5,287C 148.004,285.509 148.837,283.676 149,281.5C 150.918,280.458 152.751,279.292 154.5,278C 152.893,278.019 151.226,278.185 149.5,278.5C 149.5,277.167 149.5,275.833 149.5,274.5C 152.646,274.882 155.646,274.882 158.5,274.5 Z"/></g>
<g><path style="opacity:1" fill="#202931" d="M 356.5,309.5 C 354.836,308.777 353.169,309.11 351.5,310.5C 351.727,306.743 352.06,303.243 352.5,300C 350.51,298.249 348.177,297.249 345.5,297C 346.554,295.612 346.72,294.112 346,292.5C 345.333,293.167 344.667,293.833 344,294.5C 344.67,289.958 342.836,287.291 338.5,286.5C 336.735,287.026 335.068,287.359 333.5,287.5C 332.316,286.312 332.316,285.145 333.5,284C 335.167,283.333 336.833,283.333 338.5,284C 339.672,286.055 341.339,286.722 343.5,286C 342.044,285.577 341.544,284.744 342,283.5C 343.073,284.28 344.24,284.113 345.5,283C 344.023,280.852 342.023,279.518 339.5,279C 340.574,278.261 341.241,277.261 341.5,276C 340.491,275.645 339.824,274.812 339.5,273.5C 341.456,271.825 342.789,272.158 343.5,274.5C 343.874,275.25 343.874,276.25 343.5,277.5C 344.328,278.415 345.328,279.081 346.5,279.5C 347.451,278.674 348.451,278.508 349.5,279C 348.289,279.893 348.289,280.726 349.5,281.5C 352.898,279.056 355.064,275.722 356,271.5C 357.232,274.3 357.899,277.3 358,280.5C 359.882,282.849 362.048,284.849 364.5,286.5C 363.738,286.911 362.738,287.077 361.5,287C 362.167,287.667 362.833,288.333 363.5,289C 362.751,290.734 362.251,292.567 362,294.5C 361,293.167 360,293.167 359,294.5C 358.667,295.833 358.333,297.167 358,298.5C 357.683,296.699 357.016,296.366 356,297.5C 355.643,301.51 355.81,305.51 356.5,309.5 Z"/></g>
<g><path style="opacity:0.369" fill="#959ca1" d="M 336.5,278.5 C 336.262,280.404 335.262,281.738 333.5,282.5C 333.738,280.596 334.738,279.262 336.5,278.5 Z"/></g>
<g><path style="opacity:0.149" fill="#afb4b9" d="M 163.5,281.5 C 164.906,281.973 165.573,282.973 165.5,284.5C 164.094,284.027 163.427,283.027 163.5,281.5 Z"/></g>
<g><path style="opacity:0.204" fill="#adadb2" d="M 225.5,283.5 C 226.906,283.973 227.573,284.973 227.5,286.5C 226.094,286.027 225.427,285.027 225.5,283.5 Z"/></g>
<g><path style="opacity:0.102" fill="#afb8bd" d="M 271.5,284.5 C 271.573,286.027 270.906,287.027 269.5,287.5C 269.427,285.973 270.094,284.973 271.5,284.5 Z"/></g>
<g><path style="opacity:0.137" fill="#98a9ad" d="M 227.5,286.5 C 228.906,286.973 229.573,287.973 229.5,289.5C 228.094,289.027 227.427,288.027 227.5,286.5 Z"/></g>
<g><path style="opacity:1" fill="#2d353c" d="M 229.5,289.5 C 232.185,292.19 234.518,295.19 236.5,298.5C 237.757,301.427 239.757,303.761 242.5,305.5C 244.817,306.82 246.817,308.486 248.5,310.5C 247.417,310.461 246.417,310.127 245.5,309.5C 244.685,311.276 243.518,311.943 242,311.5C 241.577,310.044 240.744,309.544 239.5,310C 239.833,310.333 240.167,310.667 240.5,311C 238.113,312.547 236.78,314.713 236.5,317.5C 235.5,317.5 234.5,317.5 233.5,317.5C 233.357,319.262 233.691,320.929 234.5,322.5C 234.043,323.298 233.376,323.631 232.5,323.5C 226.591,315.409 220.424,307.409 214,299.5C 209.89,292.942 206.057,286.275 202.5,279.5C 205.353,278.865 208.187,278.531 211,278.5C 213.134,280.287 213.967,282.62 213.5,285.5C 212.448,285.649 211.448,285.483 210.5,285C 210.833,284.667 211.167,284.333 211.5,284C 209.806,282.613 208.14,282.946 206.5,285C 209.378,286.606 212.378,287.939 215.5,289C 213.325,292.08 213.991,294.747 217.5,297C 216.077,298.412 216.244,299.579 218,300.5C 219.595,298.575 219.762,296.575 218.5,294.5C 220.045,293.548 221.712,293.215 223.5,293.5C 223.5,294.833 223.5,296.167 223.5,297.5C 225.492,297.328 227.158,297.995 228.5,299.5C 229.262,298.372 229.929,297.205 230.5,296C 230.032,294.178 229.699,292.011 229.5,289.5 Z"/></g>
<g><path style="opacity:0.998" fill="#2c333a" d="M 339.5,273.5 C 339.824,274.812 340.491,275.645 341.5,276C 341.241,277.261 340.574,278.261 339.5,279C 342.023,279.518 344.023,280.852 345.5,283C 344.24,284.113 343.073,284.28 342,283.5C 341.544,284.744 342.044,285.577 343.5,286C 341.339,286.722 339.672,286.055 338.5,284C 336.833,283.333 335.167,283.333 333.5,284C 332.316,285.145 332.316,286.312 333.5,287.5C 333.5,289.833 333.5,292.167 333.5,294.5C 330.941,294.39 328.608,295.056 326.5,296.5C 328.507,298.008 330.174,299.842 331.5,302C 333.764,302.236 335.931,302.736 338,303.5C 338.667,302.833 339.333,302.167 340,301.5C 340.346,303.218 340.846,304.885 341.5,306.5C 340.309,306.405 338.975,306.738 337.5,307.5C 337.631,306.761 337.464,306.094 337,305.5C 331.76,311.521 325.593,316.188 318.5,319.5C 319.625,317.179 319.792,314.846 319,312.5C 321.868,313.826 324.034,312.992 325.5,310C 323.116,308.59 321.45,306.59 320.5,304C 323.307,303.935 325.307,302.935 326.5,301C 325.5,300.167 324.5,299.333 323.5,298.5C 324.506,297.604 324.506,296.938 323.5,296.5C 321.754,298.854 319.421,299.854 316.5,299.5C 322.5,294.167 328.167,288.5 333.5,282.5C 335.262,281.738 336.262,280.404 336.5,278.5C 337.11,276.566 338.11,274.899 339.5,273.5 Z"/></g>
<g><path style="opacity:0.998" fill="#202a31" d="M 351.5,310.5 C 349.496,312.19 347.163,313.524 344.5,314.5C 343.542,312.376 342.375,310.376 341,308.5C 339.8,310.412 338.133,311.745 336,312.5C 335.536,311.906 335.369,311.239 335.5,310.5C 336.906,310.027 337.573,309.027 337.5,307.5C 338.975,306.738 340.309,306.405 341.5,306.5C 340.846,304.885 340.346,303.218 340,301.5C 339.333,302.167 338.667,302.833 338,303.5C 335.931,302.736 333.764,302.236 331.5,302C 330.174,299.842 328.507,298.008 326.5,296.5C 328.608,295.056 330.941,294.39 333.5,294.5C 333.5,292.167 333.5,289.833 333.5,287.5C 335.068,287.359 336.735,287.026 338.5,286.5C 342.836,287.291 344.67,289.958 344,294.5C 344.667,293.833 345.333,293.167 346,292.5C 346.72,294.112 346.554,295.612 345.5,297C 348.177,297.249 350.51,298.249 352.5,300C 352.06,303.243 351.727,306.743 351.5,310.5 Z"/></g>
<g><path style="opacity:0.427" fill="#878a92" d="M 236.5,298.5 C 239.243,300.239 241.243,302.573 242.5,305.5C 239.757,303.761 237.757,301.427 236.5,298.5 Z"/></g>
<g><path style="opacity:1" fill="#242d34" d="M 275.5,309.5 C 275.167,310.5 274.5,311.167 273.5,311.5C 273.44,310.957 273.107,310.624 272.5,310.5C 270.679,311.728 269.679,313.394 269.5,315.5C 268.448,315.351 267.448,315.517 266.5,316C 267.252,316.671 267.586,317.504 267.5,318.5C 266.778,319.551 265.778,320.218 264.5,320.5C 263.116,319.199 261.616,319.199 260,320.5C 259.517,319.552 259.351,318.552 259.5,317.5C 258.5,317.5 257.5,317.5 256.5,317.5C 255.849,316.909 255.182,316.243 254.5,315.5C 251.684,314.87 249.018,315.536 246.5,317.5C 245.571,316.311 245.238,314.978 245.5,313.5C 249.476,313.007 253.31,312.007 257,310.5C 257.333,310.833 257.667,311.167 258,311.5C 258.47,310.423 258.303,309.423 257.5,308.5C 258.329,307.668 259.162,308.001 260,309.5C 260.236,307.236 260.736,305.069 261.5,303C 261.167,302.667 260.833,302.333 260.5,302C 261.808,301.176 263.308,300.676 265,300.5C 264.899,295.406 267.065,293.739 271.5,295.5C 271.351,294.448 271.517,293.448 272,292.5C 274.171,296.317 273.671,299.817 270.5,303C 272.553,304.202 274.553,304.536 276.5,304C 274.572,305.681 274.239,307.514 275.5,309.5 Z"/></g>
<g><path style="opacity:0.173" fill="#959ca8" d="M 158.5,304.5 C 156.584,303.335 155.751,301.668 156,299.5C 157.883,300.653 158.716,302.319 158.5,304.5 Z"/></g>
<g><path style="opacity:1" fill="#252e35" d="M 318.5,319.5 C 313.297,323.308 307.631,326.475 301.5,329C 298.739,329.722 296.073,329.555 293.5,328.5C 291.898,326.926 289.898,326.259 287.5,326.5C 287.167,326.5 286.833,326.5 286.5,326.5C 285.911,324.648 285.244,322.815 284.5,321C 282.231,321.374 279.898,321.374 277.5,321C 279.431,320.098 281.097,318.931 282.5,317.5C 294.493,312.862 305.827,306.862 316.5,299.5C 319.421,299.854 321.754,298.854 323.5,296.5C 324.506,296.938 324.506,297.604 323.5,298.5C 324.5,299.333 325.5,300.167 326.5,301C 325.307,302.935 323.307,303.935 320.5,304C 321.45,306.59 323.116,308.59 325.5,310C 324.034,312.992 321.868,313.826 319,312.5C 319.792,314.846 319.625,317.179 318.5,319.5 Z"/></g>
<g><path style="opacity:0.133" fill="#a1a5ab" d="M 337.5,307.5 C 337.573,309.027 336.906,310.027 335.5,310.5C 335.427,308.973 336.094,307.973 337.5,307.5 Z"/></g>
<g><path style="opacity:1" fill="#262f36" d="M 257.5,308.5 C 258.303,309.423 258.47,310.423 258,311.5C 257.667,311.167 257.333,310.833 257,310.5C 253.31,312.007 249.476,313.007 245.5,313.5C 245.238,314.978 245.571,316.311 246.5,317.5C 249.018,315.536 251.684,314.87 254.5,315.5C 255.182,316.243 255.849,316.909 256.5,317.5C 256.209,318.649 255.376,319.316 254,319.5C 252.415,318.755 250.915,318.255 249.5,318C 249.957,318.414 250.291,318.914 250.5,319.5C 249.221,322.112 247.555,324.445 245.5,326.5C 247.981,327.86 247.648,328.86 244.5,329.5C 243.643,330.736 242.977,332.069 242.5,333.5C 244.175,332.59 246.175,332.59 248.5,333.5C 245.554,336.313 242.221,338.646 238.5,340.5C 235.199,340.208 233.199,338.541 232.5,335.5C 229.989,335.699 227.822,336.032 226,336.5C 223.828,335.415 221.828,334.081 220,332.5C 219.53,331.423 219.697,330.423 220.5,329.5C 224.217,326.975 228.217,324.975 232.5,323.5C 233.376,323.631 234.043,323.298 234.5,322.5C 233.691,320.929 233.357,319.262 233.5,317.5C 234.5,317.5 235.5,317.5 236.5,317.5C 236.78,314.713 238.113,312.547 240.5,311C 240.167,310.667 239.833,310.333 239.5,310C 240.744,309.544 241.577,310.044 242,311.5C 243.518,311.943 244.685,311.276 245.5,309.5C 246.417,310.127 247.417,310.461 248.5,310.5C 249.167,310.167 249.833,309.833 250.5,309.5C 252.806,309.007 255.139,308.674 257.5,308.5 Z"/></g>
<g><path style="opacity:1" fill="#282f36" d="M 351.5,310.5 C 353.169,309.11 354.836,308.777 356.5,309.5C 352.385,318.614 347.052,326.948 340.5,334.5C 339.167,334.5 338.5,335.167 338.5,336.5C 330.355,345.648 321.021,353.315 310.5,359.5C 310.833,358.167 311.167,356.833 311.5,355.5C 312.833,355.5 314.167,355.5 315.5,355.5C 315.547,352.072 316.713,349.072 319,346.5C 319.787,347.711 320.454,348.711 321,349.5C 322.49,348.683 323.99,347.85 325.5,347C 324.376,346.751 323.376,346.251 322.5,345.5C 323.374,343.253 323.708,340.92 323.5,338.5C 322.167,338.5 320.833,338.5 319.5,338.5C 319.24,329.609 317.574,329.276 314.5,337.5C 312.872,336.465 311.205,336.465 309.5,337.5C 318.812,329.187 327.479,320.187 335.5,310.5C 335.369,311.239 335.536,311.906 336,312.5C 338.133,311.745 339.8,310.412 341,308.5C 342.375,310.376 343.542,312.376 344.5,314.5C 347.163,313.524 349.496,312.19 351.5,310.5 Z"/></g>
<g><path style="opacity:0.753" fill="#5e6267" d="M 273.5,311.5 C 272.219,314.447 270.219,316.781 267.5,318.5C 267.586,317.504 267.252,316.671 266.5,316C 267.448,315.517 268.448,315.351 269.5,315.5C 269.679,313.394 270.679,311.728 272.5,310.5C 273.107,310.624 273.44,310.957 273.5,311.5 Z"/></g>
<g><path style="opacity:0.999" fill="#3d444a" d="M 282.5,317.5 C 281.097,318.931 279.431,320.098 277.5,321C 279.898,321.374 282.231,321.374 284.5,321C 285.244,322.815 285.911,324.648 286.5,326.5C 281.927,325.213 277.594,323.38 273.5,321C 276.189,319.076 279.189,317.909 282.5,317.5 Z"/></g>
<g><path style="opacity:0.078" fill="#9c9ea4" d="M 287.5,326.5 C 289.898,326.259 291.898,326.926 293.5,328.5C 291.214,328.405 289.214,327.738 287.5,326.5 Z"/></g>
<g><path style="opacity:1" fill="#232b33" d="M 256.5,317.5 C 257.5,317.5 258.5,317.5 259.5,317.5C 259.351,318.552 259.517,319.552 260,320.5C 261.616,319.199 263.116,319.199 264.5,320.5C 263.5,320.5 262.5,320.5 261.5,320.5C 261.67,321.822 261.337,322.989 260.5,324C 263.397,325.715 264.731,328.215 264.5,331.5C 266.262,331.643 267.929,331.309 269.5,330.5C 270.711,331.274 270.711,332.107 269.5,333C 272.044,334.092 274.711,334.759 277.5,335C 274.671,335.048 272.337,336.048 270.5,338C 271.167,338.333 271.833,338.667 272.5,339C 269.482,338.435 266.482,338.602 263.5,339.5C 261.587,338.627 259.753,337.627 258,336.5C 256.586,337.413 255.086,337.413 253.5,336.5C 251.326,336.25 249.659,335.25 248.5,333.5C 246.175,332.59 244.175,332.59 242.5,333.5C 242.977,332.069 243.643,330.736 244.5,329.5C 247.648,328.86 247.981,327.86 245.5,326.5C 247.555,324.445 249.221,322.112 250.5,319.5C 250.291,318.914 249.957,318.414 249.5,318C 250.915,318.255 252.415,318.755 254,319.5C 255.376,319.316 256.209,318.649 256.5,317.5 Z"/></g>
<g><path style="opacity:1" fill="#252e35" d="M 169.5,320.5 C 174.658,324.927 179.658,329.594 184.5,334.5C 184.973,335.906 185.973,336.573 187.5,336.5C 187.369,337.376 187.702,338.043 188.5,338.5C 190.167,339.167 191.833,339.833 193.5,340.5C 195.103,339.207 196.769,338.207 198.5,337.5C 199.5,337.5 200.5,337.5 201.5,337.5C 201.351,338.552 201.517,339.552 202,340.5C 203.016,339.366 203.683,339.699 204,341.5C 205.688,340.675 205.855,339.675 204.5,338.5C 208.472,335.643 209.139,336.143 206.5,340C 207.552,341.716 206.886,342.716 204.5,343C 206.541,344.242 207.707,346.075 208,348.5C 208.561,347.978 209.228,347.645 210,347.5C 211.938,349.202 213.772,350.869 215.5,352.5C 218.486,352.903 221.152,353.903 223.5,355.5C 222.504,355.414 221.671,355.748 221,356.5C 220.692,355.692 220.192,355.025 219.5,354.5C 218.269,355.651 218.269,356.817 219.5,358C 218.584,358.374 217.75,358.874 217,359.5C 214.811,358.728 212.311,358.228 209.5,358C 208.359,358.741 208.359,359.575 209.5,360.5C 205.632,363.813 206.299,366.147 211.5,367.5C 214.006,367.252 215.672,365.919 216.5,363.5C 218.437,364.954 220.103,366.621 221.5,368.5C 224.077,369.87 226.743,371.87 229.5,374.5C 222.309,373.619 215.309,371.952 208.5,369.5C 207.713,367.896 206.38,367.229 204.5,367.5C 201.256,366.537 198.256,365.204 195.5,363.5C 194.766,362.292 194.433,360.959 194.5,359.5C 192.473,359.662 190.473,359.495 188.5,359C 188.056,357.467 187.723,355.967 187.5,354.5C 186.252,353.96 185.085,353.293 184,352.5C 182.442,353.345 181.442,352.679 181,350.5C 179.506,351.747 178.006,351.747 176.5,350.5C 174.558,346.274 171.892,342.607 168.5,339.5C 167.749,340.376 167.249,341.376 167,342.5C 165.67,341.418 164.17,340.751 162.5,340.5C 162.586,339.504 162.252,338.671 161.5,338C 164.167,337.333 164.167,336.667 161.5,336C 162.973,335.29 163.64,334.124 163.5,332.5C 162.178,332.67 161.011,332.337 160,331.5C 159.667,329.833 159.333,328.167 159,326.5C 155.355,324.663 155.022,322.663 158,320.5C 161.861,320.556 165.694,320.556 169.5,320.5 Z"/></g>
<g><path style="opacity:0.012" fill="#999c9e" d="M 184.5,334.5 C 186.027,334.427 187.027,335.094 187.5,336.5C 185.973,336.573 184.973,335.906 184.5,334.5 Z"/></g>
<g><path style="opacity:0.999" fill="#293339" d="M 220.5,329.5 C 219.697,330.423 219.53,331.423 220,332.5C 221.828,334.081 223.828,335.415 226,336.5C 227.822,336.032 229.989,335.699 232.5,335.5C 233.199,338.541 235.199,340.208 238.5,340.5C 230.762,344.512 223.096,348.512 215.5,352.5C 213.772,350.869 211.938,349.202 210,347.5C 209.228,347.645 208.561,347.978 208,348.5C 207.707,346.075 206.541,344.242 204.5,343C 206.886,342.716 207.552,341.716 206.5,340C 209.139,336.143 208.472,335.643 204.5,338.5C 205.855,339.675 205.688,340.675 204,341.5C 203.683,339.699 203.016,339.366 202,340.5C 201.517,339.552 201.351,338.552 201.5,337.5C 200.5,337.5 199.5,337.5 198.5,337.5C 205.868,335.043 213.202,332.376 220.5,329.5 Z"/></g>
<g><path style="opacity:1" fill="#2a3138" d="M 264.5,320.5 C 264.414,321.496 264.748,322.329 265.5,323C 276.581,329.303 288.248,334.137 300.5,337.5C 298.139,337.674 295.806,338.007 293.5,338.5C 293.725,342.056 292.892,342.39 291,339.5C 290.5,339.667 290,339.833 289.5,340C 290.974,341.316 292.641,342.316 294.5,343C 292.343,343.078 290.343,343.245 288.5,343.5C 286.991,341.085 285.324,340.919 283.5,343C 284.685,344.353 286.019,345.52 287.5,346.5C 286.833,346.833 286.167,347.167 285.5,347.5C 287.848,348.86 288.015,350.527 286,352.5C 285.667,351.5 285.333,350.5 285,349.5C 284.764,351.119 283.931,352.119 282.5,352.5C 275.225,348.428 267.559,344.594 259.5,341C 257.253,339.723 255.253,338.223 253.5,336.5C 255.086,337.413 256.586,337.413 258,336.5C 259.753,337.627 261.587,338.627 263.5,339.5C 266.482,338.602 269.482,338.435 272.5,339C 271.833,338.667 271.167,338.333 270.5,338C 272.337,336.048 274.671,335.048 277.5,335C 274.711,334.759 272.044,334.092 269.5,333C 270.711,332.107 270.711,331.274 269.5,330.5C 267.929,331.309 266.262,331.643 264.5,331.5C 264.731,328.215 263.397,325.715 260.5,324C 261.337,322.989 261.67,321.822 261.5,320.5C 262.5,320.5 263.5,320.5 264.5,320.5 Z"/></g>
<g><path style="opacity:0.008" fill="#e0e1e3" d="M 340.5,334.5 C 340.167,335.5 339.5,336.167 338.5,336.5C 338.5,335.167 339.167,334.5 340.5,334.5 Z"/></g>
<g><path style="opacity:0.969" fill="#5c6368" d="M 187.5,336.5 C 190.928,338.502 194.594,338.835 198.5,337.5C 196.769,338.207 195.103,339.207 193.5,340.5C 191.833,339.833 190.167,339.167 188.5,338.5C 187.702,338.043 187.369,337.376 187.5,336.5 Z"/></g>
<g><path style="opacity:1" fill="#1f272e" d="M 311.5,355.5 C 309.109,354.592 306.776,354.426 304.5,355C 308.434,351.703 308.268,351.203 304,353.5C 303.581,352.328 302.915,351.328 302,350.5C 299.861,351.769 297.695,351.769 295.5,350.5C 298.086,349.52 300.753,349.187 303.5,349.5C 303.5,347.167 303.5,344.833 303.5,342.5C 304.552,342.649 305.552,342.483 306.5,342C 305.354,341.355 304.354,340.522 303.5,339.5C 302.604,340.506 301.938,340.506 301.5,339.5C 302.325,338.614 303.325,338.281 304.5,338.5C 306.292,338.634 307.958,338.301 309.5,337.5C 311.205,336.465 312.872,336.465 314.5,337.5C 317.574,329.276 319.24,329.609 319.5,338.5C 320.833,338.5 322.167,338.5 323.5,338.5C 323.708,340.92 323.374,343.253 322.5,345.5C 323.376,346.251 324.376,346.751 325.5,347C 323.99,347.85 322.49,348.683 321,349.5C 320.454,348.711 319.787,347.711 319,346.5C 316.713,349.072 315.547,352.072 315.5,355.5C 314.167,355.5 312.833,355.5 311.5,355.5 Z"/></g>
<g><path style="opacity:1" fill="#21292f" d="M 300.5,337.5 C 302.099,337.232 303.432,337.566 304.5,338.5C 303.325,338.281 302.325,338.614 301.5,339.5C 301.938,340.506 302.604,340.506 303.5,339.5C 304.354,340.522 305.354,341.355 306.5,342C 305.552,342.483 304.552,342.649 303.5,342.5C 303.5,344.833 303.5,347.167 303.5,349.5C 300.753,349.187 298.086,349.52 295.5,350.5C 297.695,351.769 299.861,351.769 302,350.5C 302.915,351.328 303.581,352.328 304,353.5C 308.268,351.203 308.434,351.703 304.5,355C 306.776,354.426 309.109,354.592 311.5,355.5C 311.167,356.833 310.833,358.167 310.5,359.5C 307.807,360.847 305.14,362.18 302.5,363.5C 301.041,363.433 299.708,363.766 298.5,364.5C 296.883,363.962 295.216,363.629 293.5,363.5C 293.5,364.5 293.5,365.5 293.5,366.5C 291.345,366.628 289.345,366.128 287.5,365C 289.456,362.397 288.789,360.064 285.5,358C 286.167,357.667 286.833,357.333 287.5,357C 286.216,356.316 285.049,356.483 284,357.5C 283.535,356.069 282.701,354.903 281.5,354C 282.056,353.617 282.389,353.117 282.5,352.5C 283.931,352.119 284.764,351.119 285,349.5C 285.333,350.5 285.667,351.5 286,352.5C 288.015,350.527 287.848,348.86 285.5,347.5C 286.167,347.167 286.833,346.833 287.5,346.5C 286.019,345.52 284.685,344.353 283.5,343C 285.324,340.919 286.991,341.085 288.5,343.5C 290.343,343.245 292.343,343.078 294.5,343C 292.641,342.316 290.974,341.316 289.5,340C 290,339.833 290.5,339.667 291,339.5C 292.892,342.39 293.725,342.056 293.5,338.5C 295.806,338.007 298.139,337.674 300.5,337.5 Z"/></g>
<g><path style="opacity:0.994" fill="#3f454c" d="M 195.5,363.5 C 183.114,357.774 172.114,350.107 162.5,340.5C 164.17,340.751 165.67,341.418 167,342.5C 167.249,341.376 167.749,340.376 168.5,339.5C 171.892,342.607 174.558,346.274 176.5,350.5C 178.006,351.747 179.506,351.747 181,350.5C 181.442,352.679 182.442,353.345 184,352.5C 185.085,353.293 186.252,353.96 187.5,354.5C 187.723,355.967 188.056,357.467 188.5,359C 190.473,359.495 192.473,359.662 194.5,359.5C 194.433,360.959 194.766,362.292 195.5,363.5 Z"/></g>
<g><path style="opacity:1" fill="#263036" d="M 223.5,355.5 C 233.75,357.129 244.083,357.796 254.5,357.5C 246.95,358.027 241.284,358.693 237.5,359.5C 235.904,362.793 234.238,366.126 232.5,369.5C 232.167,368.833 231.833,368.167 231.5,367.5C 229.665,368.192 227.832,367.858 226,366.5C 224.67,367.582 223.17,368.249 221.5,368.5C 220.103,366.621 218.437,364.954 216.5,363.5C 215.672,365.919 214.006,367.252 211.5,367.5C 206.299,366.147 205.632,363.813 209.5,360.5C 208.359,359.575 208.359,358.741 209.5,358C 212.311,358.228 214.811,358.728 217,359.5C 217.75,358.874 218.584,358.374 219.5,358C 218.269,356.817 218.269,355.651 219.5,354.5C 220.192,355.025 220.692,355.692 221,356.5C 221.671,355.748 222.504,355.414 223.5,355.5 Z"/></g>
<g><path style="opacity:1" fill="#282f37" d="M 282.5,352.5 C 282.389,353.117 282.056,353.617 281.5,354C 282.701,354.903 283.535,356.069 284,357.5C 285.049,356.483 286.216,356.316 287.5,357C 286.833,357.333 286.167,357.667 285.5,358C 288.789,360.064 289.456,362.397 287.5,365C 289.345,366.128 291.345,366.628 293.5,366.5C 293.5,365.5 293.5,364.5 293.5,363.5C 295.216,363.629 296.883,363.962 298.5,364.5C 298.5,364.833 298.5,365.167 298.5,365.5C 277.649,374.814 255.982,377.814 233.5,374.5C 235.199,374.66 236.866,374.494 238.5,374C 238.167,373.667 237.833,373.333 237.5,373C 239.526,371.705 240.526,370.205 240.5,368.5C 241.984,370.074 243.651,371.407 245.5,372.5C 246.95,371.15 247.617,369.484 247.5,367.5C 248.5,367.5 249.5,367.5 250.5,367.5C 250.67,366.178 250.337,365.011 249.5,364C 246.711,363.759 244.044,363.092 241.5,362C 244.661,360.668 247.828,360.168 251,360.5C 254.396,364.203 258.563,365.369 263.5,364C 266.028,362.325 268.694,360.992 271.5,360C 269.437,359.282 267.104,358.449 264.5,357.5C 270.461,356.052 276.461,354.385 282.5,352.5 Z"/></g>
<g><path style="opacity:0.992" fill="#212930" d="M 254.5,357.5 C 257.833,357.5 261.167,357.5 264.5,357.5C 267.104,358.449 269.437,359.282 271.5,360C 268.694,360.992 266.028,362.325 263.5,364C 258.563,365.369 254.396,364.203 251,360.5C 247.828,360.168 244.661,360.668 241.5,362C 244.044,363.092 246.711,363.759 249.5,364C 250.337,365.011 250.67,366.178 250.5,367.5C 249.5,367.5 248.5,367.5 247.5,367.5C 247.617,369.484 246.95,371.15 245.5,372.5C 243.651,371.407 241.984,370.074 240.5,368.5C 240.526,370.205 239.526,371.705 237.5,373C 237.833,373.333 238.167,373.667 238.5,374C 236.866,374.494 235.199,374.66 233.5,374.5C 232.167,374.5 230.833,374.5 229.5,374.5C 226.743,371.87 224.077,369.87 221.5,368.5C 223.17,368.249 224.67,367.582 226,366.5C 227.832,367.858 229.665,368.192 231.5,367.5C 231.833,368.167 232.167,368.833 232.5,369.5C 234.238,366.126 235.904,362.793 237.5,359.5C 241.284,358.693 246.95,358.027 254.5,357.5 Z"/></g>
<g><path style="opacity:0.004" fill="#bcbec0" d="M 302.5,363.5 C 301.486,364.674 300.153,365.34 298.5,365.5C 298.5,365.167 298.5,364.833 298.5,364.5C 299.708,363.766 301.041,363.433 302.5,363.5 Z"/></g>
<g><path style="opacity:0.027" fill="#c5c6c6" d="M 204.5,367.5 C 206.38,367.229 207.713,367.896 208.5,369.5C 206.847,369.34 205.514,368.674 204.5,367.5 Z"/></g>
</svg>
