<?xml version="1.0" standalone="no"?>
<!DOCTYPE svg PUBLIC "-//W3C//DTD SVG 20010904//EN"
 "http://www.w3.org/TR/2001/REC-SVG-20010904/DTD/svg10.dtd">
<svg version="1.0" xmlns="http://www.w3.org/2000/svg"
 width="1700.000000pt" height="997.000000pt" viewBox="0 0 1700.000000 997.000000"
 preserveAspectRatio="xMidYMid meet">

<g transform="translate(0.000000,997.000000) scale(0.100000,-0.100000)"
fill="#000000" stroke="none">
<path d="M11988 9314 c-2 -2 -149 -5 -327 -7 -258 -3 -325 -6 -331 -17 -10
-16 -60 -19 -370 -24 -226 -3 -443 -21 -448 -37 -5 -12 -42 -12 -42 1 0 6 -27
10 -60 10 -33 0 -60 -4 -60 -9 0 -4 -42 -11 -92 -14 -157 -11 -278 -32 -291
-50 -7 -9 -10 -9 -14 1 -6 14 -113 17 -113 3 0 -11 -61 -25 -206 -46 -60 -9
-111 -20 -114 -24 -3 -4 -36 -13 -75 -20 -38 -7 -90 -17 -115 -21 -25 -5 -75
-9 -112 -9 -38 -1 -68 -5 -68 -11 0 -5 -24 -10 -52 -10 -29 0 -93 -7 -143 -16
-49 -9 -108 -18 -129 -20 -22 -2 -42 -8 -45 -13 -6 -8 -49 -17 -141 -27 -222
-24 -241 -27 -250 -43 -8 -14 -11 -14 -20 -1 -6 9 -10 10 -10 3 0 -7 -26 -14
-67 -18 -90 -8 -227 -35 -233 -45 -3 -4 -30 -10 -60 -12 -111 -9 -210 -30
-210 -44 0 -10 -13 -14 -42 -14 -24 0 -68 -7 -98 -15 -30 -8 -74 -15 -97 -15
-42 0 -93 -17 -93 -30 0 -4 -26 -10 -57 -13 -99 -9 -247 -37 -254 -49 -4 -6
-50 -14 -102 -19 -52 -4 -122 -15 -155 -23 -33 -9 -73 -16 -90 -16 -17 0 -32
-4 -34 -8 -4 -11 -156 -52 -191 -52 -15 0 -27 -4 -27 -10 0 -5 -15 -10 -34
-10 -18 0 -49 -6 -67 -14 -19 -7 -55 -17 -81 -20 -27 -4 -48 -11 -48 -17 0 -5
-11 -9 -24 -9 -14 0 -37 -5 -53 -11 -15 -6 -71 -18 -123 -26 -52 -8 -98 -19
-101 -24 -9 -15 -109 -40 -181 -46 -38 -3 -68 -9 -68 -14 0 -12 -63 -28 -154
-38 -43 -5 -82 -15 -87 -22 -9 -14 -79 -34 -157 -45 -29 -3 -56 -12 -60 -18
-4 -6 -33 -20 -64 -29 -32 -10 -61 -24 -65 -31 -5 -7 -36 -24 -70 -36 -35 -12
-63 -26 -63 -31 0 -4 -16 -11 -35 -15 -52 -9 -105 -29 -125 -46 -10 -9 -33
-19 -51 -22 -68 -13 -159 -41 -159 -48 0 -5 -7 -8 -16 -8 -17 0 -97 -41 -102
-52 -2 -5 -8 -8 -13 -8 -16 0 -129 -53 -129 -60 0 -4 -33 -18 -73 -31 -39 -13
-74 -27 -77 -30 -3 -3 -31 -14 -63 -24 -32 -10 -62 -26 -68 -37 -5 -10 -20
-18 -33 -18 -13 0 -35 -9 -49 -20 -14 -11 -28 -20 -31 -20 -4 0 -16 -9 -28
-20 -12 -11 -32 -20 -44 -20 -13 0 -26 -4 -29 -10 -3 -5 -17 -10 -31 -10 -13
0 -24 -4 -24 -10 0 -5 -8 -10 -18 -10 -10 0 -28 -9 -40 -20 -12 -11 -28 -20
-37 -20 -8 0 -15 -4 -15 -10 0 -5 -12 -10 -27 -10 -16 0 -37 -7 -47 -15 -11
-8 -32 -15 -47 -15 -16 0 -34 -8 -41 -18 -14 -20 -73 -52 -94 -52 -7 0 -19 -6
-26 -14 -8 -7 -35 -23 -61 -34 -26 -12 -54 -28 -63 -37 -8 -8 -27 -15 -41 -15
-28 0 -93 -36 -93 -51 0 -5 -11 -9 -24 -9 -14 0 -28 -4 -31 -10 -3 -5 -15 -10
-26 -10 -10 0 -28 -9 -39 -20 -11 -11 -24 -20 -30 -20 -10 0 -92 -40 -100 -49
-8 -10 -72 -39 -115 -53 -22 -7 -42 -16 -45 -19 -3 -3 -21 -14 -40 -24 -19 -9
-42 -25 -50 -34 -8 -10 -35 -26 -60 -36 -25 -11 -52 -27 -61 -37 -8 -9 -27
-19 -41 -22 -35 -6 -65 -22 -71 -40 -3 -8 -20 -17 -37 -21 -18 -4 -40 -15 -51
-26 -10 -10 -40 -28 -66 -40 -26 -12 -50 -25 -53 -29 -3 -4 -29 -19 -57 -34
-29 -14 -53 -30 -53 -35 0 -5 -21 -19 -47 -32 -27 -12 -50 -25 -53 -28 -8 -9
-43 -30 -69 -41 -14 -6 -31 -20 -38 -30 -8 -11 -25 -20 -37 -20 -13 0 -29 -7
-36 -15 -7 -8 -19 -15 -26 -15 -8 0 -14 -4 -14 -8 0 -5 -18 -16 -41 -26 -22
-10 -43 -24 -46 -32 -3 -8 -9 -14 -14 -14 -9 0 -89 -49 -99 -60 -3 -4 -22 -16
-42 -29 -21 -12 -38 -27 -38 -32 0 -5 -5 -9 -11 -9 -18 0 -99 -40 -99 -50 0
-5 -8 -11 -18 -14 -10 -4 -29 -24 -43 -46 -13 -22 -30 -40 -37 -40 -7 0 -23
-10 -35 -23 -12 -12 -34 -29 -49 -36 -16 -8 -28 -19 -28 -25 0 -6 -20 -24 -43
-40 -24 -16 -49 -42 -57 -59 -14 -33 -84 -107 -100 -107 -5 0 -10 -6 -10 -14
0 -7 -22 -37 -50 -65 -27 -28 -50 -58 -50 -67 0 -8 -7 -17 -15 -20 -8 -4 -15
-12 -15 -19 0 -7 -14 -25 -30 -38 -17 -14 -30 -30 -30 -35 0 -5 -7 -15 -15
-22 -8 -7 -17 -27 -21 -46 -3 -18 -16 -44 -29 -58 -12 -13 -25 -42 -29 -64 -3
-22 -13 -47 -21 -56 -25 -24 -38 -120 -39 -292 -1 -163 7 -205 41 -227 7 -4
13 -24 13 -43 0 -26 5 -37 23 -45 18 -8 63 -62 76 -93 2 -4 25 -30 51 -56 27
-27 51 -59 55 -72 4 -13 17 -33 29 -45 41 -43 56 -63 56 -73 0 -6 4 -10 9 -10
5 0 12 -8 15 -17 13 -37 40 -74 91 -127 17 -17 36 -43 44 -59 8 -15 37 -49 64
-75 26 -26 56 -55 65 -64 9 -10 20 -18 24 -18 4 0 18 -11 32 -25 20 -20 35
-25 75 -25 40 0 54 -4 63 -20 7 -11 17 -20 23 -20 6 0 25 -13 42 -29 18 -16
53 -37 78 -46 25 -10 49 -23 53 -29 11 -16 71 -46 93 -46 24 0 55 -16 83 -41
11 -11 28 -19 38 -19 10 0 23 -9 30 -20 7 -11 20 -20 28 -20 9 0 23 -9 33 -20
9 -11 24 -20 32 -20 8 0 15 -4 15 -10 0 -5 7 -10 15 -10 21 0 95 -33 95 -42 0
-5 -8 -15 -19 -24 -10 -9 -30 -26 -43 -38 -31 -26 -112 -66 -137 -66 -10 0
-21 -6 -24 -14 -3 -8 -25 -17 -49 -21 -24 -4 -53 -13 -65 -21 -12 -8 -29 -14
-38 -14 -8 0 -15 -4 -15 -9 0 -5 -19 -11 -42 -14 -64 -8 -132 -30 -152 -50
-10 -9 -23 -17 -31 -17 -18 0 -119 -33 -125 -40 -9 -12 -73 -40 -91 -40 -10 0
-21 -4 -24 -10 -3 -5 -22 -10 -41 -10 -19 0 -34 -4 -34 -9 0 -13 -57 -31 -98
-31 -36 0 -103 -19 -112 -32 -3 -4 -23 -11 -43 -15 -43 -9 -53 -26 -19 -31 12
-2 22 -7 22 -12 0 -4 9 -10 20 -13 14 -4 18 -10 13 -23 -7 -18 0 -18 52 1 16
5 17 5 5 -4 -9 -6 -10 -11 -3 -11 6 0 19 -7 28 -17 13 -12 19 -13 25 -4 5 10
9 9 13 -3 4 -9 16 -16 28 -16 30 0 18 -24 -14 -28 -15 -2 -27 -7 -27 -12 0 -5
-16 -14 -35 -20 -19 -6 -35 -18 -35 -26 0 -25 30 -74 44 -74 8 0 17 -6 19 -12
4 -10 6 -10 6 0 1 15 131 17 131 2 0 -6 26 -10 59 -10 55 0 60 2 68 28 6 15 8
44 5 65 -2 23 0 37 7 37 6 0 11 5 11 11 0 13 38 49 52 49 4 0 8 6 8 13 0 14
40 37 65 37 8 0 20 9 27 19 8 11 26 23 41 26 15 4 30 11 33 16 3 5 13 9 23 9
10 0 28 9 41 20 13 11 26 20 29 21 3 1 22 3 43 4 52 5 118 24 118 35 0 12 56
38 99 46 20 3 41 12 46 18 6 6 30 18 55 25 60 17 100 34 100 43 0 5 13 8 29 8
17 0 32 4 35 9 3 5 26 14 51 20 25 6 45 16 45 21 0 6 5 10 11 10 5 0 31 9 56
21 44 20 47 20 125 4 44 -9 90 -15 102 -14 11 2 68 -1 126 -5 95 -6 109 -5
148 14 23 11 42 27 42 34 0 8 19 18 44 25 28 7 56 24 77 46 19 19 41 35 51 35
25 0 25 65 1 79 -16 9 -16 12 -3 20 8 6 16 15 16 21 3 23 5 25 12 14 4 -6 21
-9 39 -7 25 4 33 11 38 34 7 29 39 42 47 18 4 -11 108 17 118 32 3 4 24 12 48
19 23 7 42 16 42 19 0 3 19 7 42 8 26 1 47 8 54 18 9 12 13 13 17 3 4 -10 6
-10 6 0 1 7 16 12 41 12 22 0 40 3 40 8 0 4 24 13 53 20 28 7 54 17 55 22 2 6
13 10 25 10 11 0 29 8 39 17 13 12 38 18 76 18 33 1 57 6 60 13 2 7 12 12 22
12 10 0 25 6 32 12 7 7 18 13 23 13 45 2 154 29 159 40 2 7 17 15 33 17 36 4
44 40 12 54 -18 8 -12 10 29 10 44 0 52 -3 52 -18 0 -10 7 -18 15 -18 8 0 15
5 15 10 0 6 12 10 26 10 19 0 25 4 20 15 -3 10 1 15 13 15 11 0 27 3 37 7 11
4 15 2 12 -8 -2 -7 5 -22 17 -34 12 -11 30 -34 39 -52 9 -18 24 -40 35 -50 10
-10 24 -39 31 -66 7 -26 18 -51 25 -55 7 -4 23 -32 35 -62 13 -30 29 -60 35
-65 18 -15 55 -87 55 -107 0 -10 4 -18 8 -18 5 0 20 -31 33 -70 13 -38 26 -70
30 -70 4 0 9 -22 13 -49 5 -42 12 -53 39 -70 17 -11 41 -37 52 -58 19 -37 37
-61 62 -88 7 -8 13 -18 13 -23 0 -6 6 -13 13 -16 9 -5 9 -7 0 -12 -20 -9 -15
-28 9 -39 15 -7 26 -27 37 -65 8 -30 23 -63 32 -74 10 -10 21 -32 24 -47 4
-16 12 -32 18 -36 18 -12 37 -50 37 -75 0 -28 21 -89 37 -106 7 -7 16 -30 21
-50 5 -20 14 -58 20 -85 7 -26 12 -56 12 -67 0 -11 4 -20 9 -20 12 0 51 -80
51 -104 0 -10 11 -27 24 -37 13 -10 27 -34 30 -53 4 -19 10 -36 14 -38 8 -3
36 -59 51 -100 6 -16 15 -28 19 -28 5 0 15 -20 22 -44 7 -25 20 -53 30 -63 9
-10 20 -42 24 -70 8 -61 30 -119 48 -126 7 -2 19 -32 27 -66 7 -33 17 -61 22
-61 5 0 9 -22 9 -49 0 -40 4 -51 18 -56 20 -6 42 -64 42 -109 0 -14 4 -26 9
-26 5 0 17 -22 26 -49 9 -27 25 -59 35 -72 11 -12 20 -28 20 -36 0 -7 7 -24
16 -38 8 -13 14 -29 13 -37 -3 -24 1 -35 21 -58 11 -13 20 -36 20 -51 0 -15 4
-30 9 -34 5 -3 13 -19 16 -37 4 -17 16 -40 26 -52 11 -11 19 -30 19 -42 0 -13
5 -26 10 -29 6 -3 10 -15 10 -26 0 -10 5 -19 10 -19 6 0 10 -8 10 -18 0 -10 5
-23 10 -28 10 -10 23 -69 37 -164 3 -24 12 -50 19 -57 14 -15 10 -83 -5 -93
-5 -3 -12 -17 -16 -32 -4 -15 -13 -32 -21 -39 -8 -6 -14 -22 -14 -36 0 -13 -6
-26 -14 -29 -19 -7 31 -59 66 -67 24 -6 28 -4 34 18 4 16 0 30 -10 40 -19 20
-21 35 -3 35 6 0 22 3 35 6 16 5 22 2 22 -10 0 -17 16 -22 22 -8 2 5 15 12 29
15 23 6 28 3 33 -18 5 -20 13 -25 36 -25 34 0 79 18 100 40 8 9 27 21 43 28
30 13 35 38 13 80 -7 15 -16 54 -20 86 -4 40 -12 64 -24 72 -10 7 -27 31 -37
53 -11 22 -23 41 -27 41 -5 0 -8 8 -8 17 0 32 -32 148 -44 158 -20 18 -46 73
-46 98 0 14 -4 29 -10 32 -5 3 -10 13 -10 21 0 8 -9 23 -20 34 -11 11 -20 29
-20 41 0 24 -18 61 -35 71 -6 4 -20 32 -30 62 -11 31 -23 56 -27 56 -4 0 -10
17 -13 38 -3 20 -11 45 -16 55 -5 10 -13 47 -16 82 -7 72 -18 98 -32 76 -6 -9
-11 3 -16 40 -9 72 -14 89 -28 89 -14 0 -57 92 -57 121 0 10 -6 19 -14 19 -9
0 -16 17 -21 48 -6 40 -28 95 -45 112 -9 9 -31 73 -42 118 -5 23 -13 42 -17
42 -12 0 -45 83 -43 108 1 12 -5 25 -13 28 -8 4 -15 17 -15 29 0 13 -4 27 -10
30 -5 3 -10 14 -10 23 0 10 -11 29 -25 44 -14 15 -25 34 -25 41 0 21 -25 66
-49 88 -12 11 -21 28 -21 38 0 10 -7 32 -15 47 -8 16 -15 37 -15 47 0 9 -4 17
-8 17 -7 0 -24 68 -48 187 -2 12 -10 28 -17 35 -8 7 -16 25 -20 38 -18 81 -38
135 -52 142 -8 5 -15 20 -15 34 0 13 -7 27 -15 30 -8 4 -15 12 -15 19 0 7 -4
15 -9 17 -10 4 -51 111 -58 153 -3 17 -9 32 -14 35 -8 6 -9 11 -32 114 -7 33
-19 62 -25 64 -7 2 -12 16 -12 32 0 16 -7 36 -16 44 -9 9 -17 37 -19 63 -2 26
-8 49 -14 51 -6 2 -11 12 -11 23 0 11 -6 30 -14 42 -8 12 -18 44 -21 70 -4 26
-14 54 -21 62 -8 7 -14 23 -14 34 0 21 -35 92 -51 101 -8 6 -16 148 -8 154 14
11 94 36 115 36 14 0 32 6 39 14 8 7 36 17 62 20 43 6 110 32 123 47 3 3 25 9
49 13 43 7 103 33 109 49 2 4 13 7 25 7 50 0 167 46 167 65 0 8 26 15 71 19
65 6 106 18 119 36 6 7 139 50 157 50 6 0 13 7 17 15 3 8 14 15 25 15 11 0 40
9 66 20 26 11 55 20 66 20 10 0 19 3 19 8 0 10 50 32 71 32 10 0 21 5 24 10 3
6 13 10 21 10 9 0 22 7 30 15 9 8 25 15 37 15 46 0 167 34 167 47 0 7 9 13 20
13 11 0 28 4 38 9 9 5 39 14 67 20 27 7 53 18 57 26 4 7 32 18 60 25 29 7 58
18 63 24 13 16 57 32 133 47 34 7 62 16 62 20 0 4 17 10 38 14 53 10 156 46
163 58 4 5 27 12 53 14 26 3 49 10 52 14 3 5 16 9 29 9 13 0 30 6 37 13 15 15
46 24 128 37 91 15 120 22 120 30 0 4 11 11 24 14 49 12 126 51 126 64 0 8 7
11 18 7 11 -3 32 1 48 10 16 8 41 15 56 15 15 0 33 7 42 15 8 8 21 15 29 15
37 0 100 39 113 70 13 30 16 31 53 25 37 -6 76 6 93 29 3 5 35 10 70 11 92 3
118 12 118 41 0 28 15 31 29 6 7 -13 20 -17 53 -15 23 1 44 7 46 13 2 5 12 10
22 10 10 0 22 5 25 10 3 6 19 10 35 10 35 0 82 17 92 33 6 9 8 9 8 -1 0 -10 4
-10 16 2 8 9 30 16 47 16 51 0 167 36 167 51 0 4 26 9 58 13 48 5 61 11 71 30
12 22 20 23 139 29 131 5 208 23 243 56 10 9 44 25 74 35 30 9 55 21 55 26 0
5 10 12 22 16 12 3 28 12 35 18 34 31 44 36 62 36 11 0 23 5 26 10 3 6 21 10
40 10 31 0 82 16 95 30 3 3 37 13 75 23 39 10 74 23 79 28 6 5 27 9 48 9 21 0
38 5 38 10 0 6 15 10 33 10 35 -1 209 41 217 52 3 3 52 12 110 18 58 7 113 16
122 21 10 5 34 9 53 9 22 0 35 5 35 13 0 15 110 42 156 38 18 -1 35 2 39 8 3
6 40 11 86 11 58 0 85 4 95 15 9 9 25 13 38 9 13 -3 40 2 61 11 27 10 41 12
45 5 11 -18 88 11 94 35 4 16 19 24 66 33 33 7 60 17 60 22 0 8 153 60 178 60
7 0 12 5 12 10 0 6 12 10 28 10 15 0 38 6 52 13 14 7 50 14 80 15 69 2 110 11
110 23 0 5 10 9 23 9 12 0 54 7 92 16 39 9 84 17 101 19 40 4 77 15 85 26 3 5
61 11 130 14 l125 5 -4 -29 c-3 -22 -10 -30 -33 -35 -16 -3 -29 -12 -29 -20 0
-7 -9 -16 -20 -19 -13 -3 -22 -17 -26 -37 -5 -22 -15 -35 -33 -41 -14 -6 -47
-32 -73 -60 -27 -27 -52 -49 -57 -49 -5 0 -11 -9 -14 -20 -3 -13 -14 -20 -29
-20 -22 0 -68 -54 -68 -80 0 -5 -6 -10 -12 -10 -7 0 -22 -13 -32 -28 -11 -16
-39 -37 -62 -48 -24 -10 -44 -24 -44 -30 0 -12 -54 -54 -70 -54 -6 0 -15 -11
-20 -25 -5 -14 -17 -28 -25 -31 -8 -4 -15 -12 -15 -20 0 -7 -12 -21 -27 -31
-16 -9 -39 -28 -52 -40 -13 -13 -31 -23 -40 -23 -9 0 -31 -16 -50 -35 -18 -19
-39 -35 -46 -35 -8 0 -27 -11 -42 -25 -47 -42 -52 -45 -63 -45 -5 0 -10 -6
-10 -13 0 -15 -69 -57 -94 -57 -9 0 -19 -6 -22 -14 -3 -8 -18 -18 -34 -21 -15
-3 -38 -19 -50 -36 -14 -17 -40 -34 -64 -41 -23 -6 -49 -20 -59 -30 -10 -10
-24 -18 -32 -18 -22 0 -35 -34 -35 -94 0 -31 -4 -56 -10 -56 -5 0 -10 -6 -10
-13 0 -6 -15 -18 -32 -25 -18 -7 -40 -17 -49 -22 -43 -23 -86 -22 -123 2 -20
13 -36 31 -36 42 0 14 -5 17 -22 12 -13 -3 -29 -6 -35 -6 -18 0 -16 -80 2
-104 8 -11 15 -28 15 -38 0 -9 9 -22 19 -28 11 -5 26 -17 35 -25 19 -19 112
-30 122 -14 3 6 0 16 -7 21 -10 6 -3 7 18 3 22 -4 40 -1 55 9 12 9 30 16 39
16 9 0 26 9 39 20 13 11 29 20 37 20 17 0 65 30 76 47 4 7 20 13 34 13 44 0
102 22 108 42 7 20 35 25 35 6 0 -7 5 -5 11 5 5 9 19 17 29 17 11 0 20 4 20 9
0 5 12 12 28 16 15 3 32 15 37 27 6 12 19 26 30 32 11 6 24 17 28 24 4 6 25
20 46 31 41 19 56 30 103 74 16 15 33 27 36 27 4 0 24 16 46 35 21 19 42 35
48 35 12 0 108 97 108 109 0 6 17 19 38 28 34 17 38 22 46 76 6 36 14 57 23
57 7 0 13 -4 13 -10 0 -15 16 -12 34 5 8 8 19 15 25 15 6 0 16 10 22 22 16 30
79 90 111 107 15 8 30 22 33 32 3 10 22 23 42 30 20 6 47 25 61 40 13 16 27
29 32 29 9 0 80 69 80 79 0 3 16 17 35 30 19 13 35 27 35 31 0 4 13 13 28 19
15 6 37 24 47 38 17 22 52 59 97 99 5 5 33 35 63 67 29 31 58 57 63 57 5 0 15
11 22 25 7 14 21 25 31 25 10 0 21 5 24 10 4 6 12 10 18 9 38 -5 57 2 57 21 0
12 -7 20 -17 20 -31 0 -4 13 34 16 26 2 45 11 60 28 12 14 32 27 45 30 13 3
36 7 51 11 17 3 31 15 37 30 11 29 22 31 44 10 23 -23 131 -20 155 4 15 15 28
19 55 14 31 -5 36 -2 50 25 12 23 21 29 36 25 11 -3 20 -12 20 -20 0 -13 8
-14 42 -9 23 4 45 11 48 16 10 16 135 29 252 27 89 -2 116 1 139 15 18 11 29
13 31 6 5 -15 66 6 82 27 7 9 43 19 94 27 56 7 82 15 82 25 0 7 9 13 20 13 11
0 20 -7 20 -15 0 -12 11 -14 63 -8 34 3 65 11 69 17 4 6 31 10 63 9 35 -2 67
3 85 12 16 8 57 18 90 22 33 3 60 10 60 14 0 14 88 11 94 -3 5 -10 7 -10 12 0
3 6 13 12 22 12 29 0 82 24 82 37 0 10 4 11 19 1 15 -9 28 -9 59 0 22 7 62 12
91 12 28 0 51 4 51 9 0 11 92 28 198 36 60 5 82 11 82 21 0 10 13 14 45 14 29
0 45 -4 45 -12 0 -10 2 -10 8 0 6 8 35 13 88 14 43 0 106 6 139 13 33 7 67 9
75 5 8 -4 71 -7 140 -6 l125 1 -3 28 c-4 38 11 54 59 62 21 4 39 11 39 16 0 5
6 9 13 9 20 0 57 35 57 52 0 8 -11 20 -25 26 -14 6 -25 18 -25 25 0 7 -20 24
-45 36 -39 19 -56 22 -123 17 -42 -3 -112 -12 -155 -21 -43 -8 -91 -15 -107
-15 -16 0 -30 -4 -32 -10 -2 -5 -82 -14 -178 -20 -265 -17 -299 -20 -314 -36
-10 -9 -37 -14 -81 -14 -39 0 -78 -6 -94 -15 -16 -8 -47 -17 -70 -21 -23 -4
-41 -10 -41 -14 0 -7 -37 -14 -155 -29 -33 -4 -73 -13 -88 -19 -16 -7 -40 -12
-53 -12 -14 0 -32 -7 -40 -15 -10 -10 -35 -15 -70 -15 -64 0 -208 -28 -212
-41 -5 -12 -62 -12 -62 1 0 6 -13 10 -30 10 -16 0 -30 -4 -30 -8 0 -5 -26 -13
-57 -20 -89 -17 -153 -36 -153 -44 0 -5 -22 -8 -50 -8 -33 0 -50 4 -50 13 0 9
-2 9 -9 -1 -6 -9 -40 -15 -107 -19 -55 -2 -117 -9 -139 -15 -22 -6 -61 -12
-87 -15 -32 -3 -48 -10 -48 -19 0 -10 -15 -14 -52 -16 -90 -3 -101 -3 -173
-12 -70 -9 -104 -20 -117 -40 -11 -17 -21 0 -22 41 -1 31 4 40 31 58 18 11 32
25 33 31 0 7 7 14 15 18 8 3 15 12 15 21 0 8 3 15 8 15 8 0 23 26 42 73 7 15
16 27 21 27 5 0 9 5 9 11 0 6 7 17 15 25 8 9 18 27 22 42 3 15 17 35 30 45 14
11 25 34 29 58 4 22 13 46 20 54 17 17 18 32 2 38 -10 4 -10 6 0 6 6 1 12 7
12 14 0 6 13 21 28 31 19 13 32 34 41 65 6 25 16 62 22 82 5 20 9 48 9 63 0
15 6 34 14 41 16 17 17 252 0 263 -6 4 -18 34 -27 67 -9 33 -23 65 -30 70 -19
14 -33 44 -41 88 -4 20 -11 37 -17 37 -13 0 -68 62 -69 77 0 6 -9 15 -20 18
-11 3 -25 16 -32 28 -6 12 -22 30 -35 40 -12 10 -23 27 -23 38 0 11 -8 23 -17
26 -21 7 -63 50 -63 63 0 4 -13 13 -30 19 -16 5 -30 17 -30 25 0 9 -3 16 -7
16 -5 0 -19 16 -32 35 -13 19 -29 35 -37 35 -7 0 -21 11 -32 25 -11 14 -23 25
-26 25 -12 0 -70 44 -89 68 -10 12 -29 22 -42 22 -15 0 -26 7 -30 20 -3 11
-22 27 -42 37 -20 9 -38 25 -41 35 -2 10 -9 18 -14 18 -5 0 -20 12 -34 26 -15
14 -50 36 -80 49 -30 13 -54 29 -54 34 0 6 -6 11 -14 11 -7 0 -19 7 -26 15 -7
8 -26 15 -42 15 -16 0 -31 6 -34 15 -4 8 -15 15 -26 15 -11 0 -28 5 -39 10
-10 6 -70 15 -131 21 -68 6 -115 14 -120 22 -6 9 -10 8 -18 -3 -6 -10 -10 -11
-10 -2 0 8 -18 12 -55 12 -30 0 -55 -4 -55 -10 0 -5 -7 -10 -15 -10 -8 0 -15
3 -15 8 0 18 -40 32 -60 22 -14 -7 -32 -8 -54 -1 -19 5 -36 7 -38 5z m-454
-119 c3 -8 1 -15 -4 -15 -6 0 -10 7 -10 15 0 8 2 15 4 15 2 0 6 -7 10 -15z
m246 4 c0 -6 -6 -17 -14 -24 -12 -12 -15 -12 -20 1 -3 9 -4 20 0 25 7 13 34
11 34 -2z m310 -36 c0 -7 -9 -13 -20 -13 -15 0 -20 7 -20 25 0 23 2 24 20 13
11 -7 20 -18 20 -25z m-820 12 c0 -8 -4 -15 -10 -15 -5 0 -10 7 -10 15 0 8 5
15 10 15 6 0 10 -7 10 -15z m564 8 c-5 -5 -12 -12 -16 -18 -4 -6 -8 -2 -8 8 0
9 7 17 17 17 9 0 12 -3 7 -7z m-1066 -37 c2 -3 1 -9 -3 -15 -8 -14 -45 -14
-45 -1 0 6 -11 10 -25 10 -14 0 -25 5 -25 11 0 8 15 10 47 5 25 -3 48 -8 51
-10z m1552 -2 c0 -8 -5 -12 -10 -9 -6 4 -8 11 -5 16 9 14 15 11 15 -7z m74 10
c9 -3 16 -10 16 -16 0 -14 -43 -5 -48 10 -4 13 7 15 32 6z m-1359 -14 c3 -5 1
-10 -4 -10 -6 0 -11 5 -11 10 0 6 2 10 4 10 3 0 8 -4 11 -10z m140 0 c3 -5 -3
-10 -15 -10 -12 0 -18 5 -15 10 3 6 10 10 15 10 5 0 12 -4 15 -10z m705 0 c0
-5 -4 -10 -10 -10 -5 0 -10 5 -10 10 0 6 5 10 10 10 6 0 10 -4 10 -10z m-1310
-25 c0 -30 -13 -32 -40 -5 -27 27 -25 30 10 30 25 0 30 -4 30 -25z m267 9 c-3
-3 -12 -4 -19 -1 -8 3 -5 6 6 6 11 1 17 -2 13 -5z m633 -14 c13 -9 13 -11 0
-20 -8 -5 -27 -10 -42 -10 -14 0 -28 -6 -31 -12 -8 -22 -27 5 -21 30 5 18 13
22 43 22 20 0 43 -5 51 -10z m300 -23 c9 -3 4 -6 -12 -6 -23 -1 -28 3 -28 22
1 19 2 20 13 6 7 -9 19 -18 27 -22z m180 19 c0 -8 6 -17 13 -19 6 -3 0 -6 -15
-6 -16 -1 -31 -1 -35 -2 -17 -1 -13 30 4 34 31 8 33 7 33 -7z m650 -1 c0 -8
-6 -15 -14 -15 -8 0 -16 7 -20 15 -4 10 1 15 14 15 11 0 20 -7 20 -15z m-1300
-20 c0 -16 -6 -25 -15 -25 -18 0 -19 4 -3 30 16 26 18 25 18 -5z m746 11 c17
-17 18 -36 3 -36 -23 0 -48 21 -43 35 8 19 21 19 40 1z m318 -1 c6 -18 -16
-30 -39 -21 -8 3 -15 12 -15 21 0 20 46 20 54 0z m-2234 -21 c0 -9 -7 -14 -17
-12 -25 5 -28 28 -4 28 12 0 21 -6 21 -16z m599 2 c12 -14 5 -46 -9 -46 -9 0
-20 25 -20 46 0 18 14 18 29 0z m141 5 c0 -17 -18 -21 -24 -6 -3 9 0 15 9 15
8 0 15 -4 15 -9z m50 -6 c0 -8 -4 -15 -10 -15 -5 0 -10 7 -10 15 0 8 5 15 10
15 6 0 10 -7 10 -15z m330 4 c0 -13 -33 -27 -50 -21 -11 4 -11 2 2 -11 19 -20
78 -23 78 -4 0 8 2 9 8 1 5 -8 89 -13 252 -17 135 -4 265 -11 290 -17 53 -14
163 -17 205 -7 17 4 24 4 18 1 -20 -9 -15 -32 7 -39 11 -4 40 -5 63 -4 24 2
48 0 54 -4 7 -4 65 -15 130 -24 65 -8 120 -19 123 -23 3 -5 28 -11 55 -15 59
-8 135 -34 135 -46 0 -5 10 -9 22 -9 35 0 108 -31 108 -47 0 -7 10 -17 23 -22
13 -5 29 -16 36 -25 7 -9 23 -16 35 -16 12 0 27 -9 34 -20 7 -11 18 -20 25
-20 8 0 19 -11 25 -25 7 -14 23 -30 37 -35 14 -5 29 -18 32 -27 4 -10 17 -27
30 -39 13 -12 23 -26 23 -31 0 -6 13 -13 28 -16 23 -5 31 -14 41 -46 6 -22 20
-46 30 -53 20 -14 49 -87 53 -133 2 -23 11 -34 35 -45 18 -8 33 -20 33 -27 0
-7 7 -16 16 -21 9 -5 18 -32 23 -68 12 -81 30 -144 41 -144 6 0 10 -27 10 -59
0 -45 -4 -60 -16 -65 -12 -4 -15 -14 -11 -34 6 -30 -26 -115 -55 -146 -21 -23
-21 -24 -7 -65 10 -28 9 -37 -10 -61 -11 -16 -21 -33 -21 -37 0 -5 -13 -17
-30 -26 -21 -13 -30 -26 -30 -45 0 -15 -11 -37 -24 -49 -13 -12 -29 -43 -36
-67 -7 -26 -20 -48 -29 -51 -9 -3 -23 -21 -30 -40 -7 -20 -23 -47 -37 -60 -13
-13 -24 -30 -24 -37 0 -6 -13 -26 -30 -42 -82 -84 -100 -105 -100 -113 0 -5
-9 -16 -20 -26 -11 -9 -20 -24 -20 -32 0 -9 -13 -21 -29 -26 -19 -7 -31 -19
-33 -32 -3 -19 -11 -23 -63 -28 -32 -4 -61 -12 -63 -18 -2 -6 -21 -11 -41 -11
-31 0 -40 5 -49 25 -6 14 -16 25 -22 25 -6 0 -16 14 -22 30 -14 42 -36 51 -98
41 -47 -8 -56 -6 -75 13 -13 11 -48 45 -79 74 -31 29 -63 64 -72 78 -9 13 -20
24 -26 24 -12 0 -86 79 -93 100 -4 13 -21 19 -63 23 -31 3 -58 11 -60 17 -7
19 -87 51 -142 56 -30 3 -57 9 -60 14 -8 13 -629 18 -638 4 -9 -13 -80 -49
-115 -58 -35 -8 -57 12 -57 53 0 21 5 31 15 31 14 0 19 20 16 66 -2 25 35 114
48 114 10 0 20 59 25 155 4 68 24 145 42 160 16 14 34 72 34 112 0 20 6 36 15
39 21 8 35 61 33 129 -1 33 2 74 6 92 7 29 5 33 -17 38 -13 4 -29 17 -35 30
-6 13 -21 26 -33 30 -13 4 -29 14 -37 21 -17 17 -52 18 -52 2 0 -7 -19 -22
-43 -33 -35 -17 -43 -25 -45 -53 -2 -18 -10 -36 -18 -39 -8 -3 -14 -19 -14
-42 0 -48 -12 -65 -39 -56 -19 6 -21 3 -21 -33 0 -26 5 -42 15 -46 19 -7 20
-50 2 -68 -8 -7 -16 -34 -20 -58 -3 -25 -10 -83 -17 -130 -6 -47 -15 -98 -20
-114 -6 -16 -10 -46 -10 -66 0 -22 -6 -40 -13 -43 -7 -2 -21 -33 -31 -68 -11
-35 -22 -66 -25 -69 -9 -7 -51 -99 -51 -110 0 -10 -20 -38 -52 -72 -10 -10
-18 -22 -18 -28 0 -5 -4 -10 -9 -10 -5 0 -11 -10 -15 -23 -3 -13 -24 -43 -46
-67 -22 -24 -40 -47 -40 -52 0 -5 -25 -33 -55 -63 -30 -30 -55 -61 -55 -68 0
-17 -86 -97 -105 -97 -8 0 -19 -9 -25 -20 -6 -11 -19 -20 -30 -20 -15 0 -20
10 -25 48 -8 53 -35 144 -45 152 -4 3 -20 43 -35 90 -15 47 -31 87 -35 90 -4
3 -10 38 -14 78 -3 41 -13 86 -21 102 -8 16 -15 36 -15 45 0 8 -4 15 -9 15 -6
0 -20 34 -32 75 -13 41 -26 75 -31 75 -4 0 -8 9 -8 19 0 11 -4 22 -9 25 -5 3
-11 20 -15 38 -3 18 -8 44 -12 58 -3 14 -7 65 -9 114 -2 60 -8 91 -17 97 -16
10 -14 112 2 117 23 8 30 41 19 87 -6 25 -15 45 -19 45 -4 0 -11 11 -14 25 -5
19 -13 25 -35 25 -16 0 -34 7 -41 15 -7 8 -28 15 -47 15 -39 0 -103 -27 -103
-43 0 -5 -8 -15 -17 -22 -23 -17 -47 -220 -33 -290 5 -27 12 -71 15 -97 4 -26
12 -54 19 -61 11 -10 11 -15 0 -24 -7 -7 -14 -8 -16 -4 -2 5 -16 11 -33 13
-29 3 -30 2 -33 -42 -4 -54 14 -116 37 -125 42 -16 58 -31 79 -76 12 -26 22
-53 22 -59 0 -5 5 -10 10 -10 6 0 10 -13 10 -28 0 -16 6 -48 14 -73 8 -24 20
-75 27 -114 7 -38 18 -75 25 -82 6 -7 17 -44 24 -83 7 -39 17 -76 24 -83 17
-18 46 -118 46 -159 0 -27 6 -40 24 -51 18 -12 26 -29 31 -68 4 -28 15 -59 24
-68 23 -26 38 -52 45 -88 4 -17 18 -38 30 -47 17 -11 26 -31 36 -78 6 -35 16
-65 20 -68 5 -3 10 -23 12 -45 3 -40 3 -40 -44 -56 -26 -8 -51 -19 -55 -22 -3
-4 -15 -7 -25 -7 -10 0 -18 -4 -18 -10 0 -5 -15 -10 -34 -10 -19 0 -38 -4 -41
-10 -3 -5 -17 -10 -31 -10 -31 0 -104 -23 -104 -32 0 -5 -10 -8 -23 -8 -36 0
-148 -41 -168 -61 -13 -13 -34 -19 -61 -19 -37 0 -71 -6 -127 -21 -10 -3 -14
13 -17 66 -5 96 -14 155 -23 155 -5 0 -11 31 -14 69 -3 37 -13 85 -21 106 -9
21 -16 55 -16 76 0 22 -3 39 -8 39 -4 0 -13 15 -20 33 -25 59 -37 81 -60 106
-13 14 -26 38 -29 53 -3 15 -12 28 -19 28 -8 0 -14 7 -14 15 0 8 -15 24 -32
35 -18 10 -39 24 -46 30 -9 8 -16 7 -28 -5 -30 -30 -60 -39 -128 -39 -44 -1
-71 -5 -73 -13 -2 -7 -20 -17 -38 -23 -25 -8 -39 -22 -51 -50 -10 -21 -25 -40
-34 -43 -11 -3 -17 -16 -18 -38 -1 -19 -6 -56 -12 -84 -7 -27 -14 -65 -17 -82
-3 -18 -9 -33 -13 -33 -10 0 -50 -116 -50 -146 0 -13 -7 -30 -15 -38 -9 -9
-25 -45 -36 -81 -12 -36 -25 -65 -30 -65 -5 0 -9 -5 -9 -11 0 -18 -40 -99 -49
-99 -5 0 -17 -16 -27 -36 -11 -20 -23 -43 -28 -52 -15 -28 -59 -59 -94 -67
-29 -6 -34 -4 -39 14 -3 12 -9 21 -14 21 -12 0 -49 75 -49 99 0 10 -7 21 -15
25 -8 3 -15 16 -15 29 0 28 -28 87 -41 87 -5 0 -9 11 -9 24 0 13 -7 29 -15 36
-8 7 -15 19 -15 26 0 8 -9 19 -19 26 -11 6 -30 37 -42 68 -15 38 -32 62 -51
73 -15 9 -28 22 -28 29 0 7 -14 21 -30 30 -17 9 -30 24 -30 32 0 8 -19 23 -42
35 -38 18 -57 19 -168 15 -115 -4 -127 -6 -146 -28 -11 -12 -31 -26 -45 -29
-13 -3 -42 -11 -64 -16 -22 -6 -52 -13 -67 -16 -15 -3 -33 -11 -40 -18 -21
-18 -50 -36 -79 -48 -14 -5 -32 -21 -39 -34 -7 -14 -19 -25 -27 -25 -7 0 -23
-11 -35 -25 -45 -52 -74 -22 -66 70 2 25 0 45 -4 45 -5 0 -8 29 -8 64 0 35 -4
66 -10 68 -5 2 -12 49 -15 105 -6 91 -4 103 13 120 11 10 22 35 26 55 7 39 -9
118 -23 118 -13 0 -22 28 -37 114 -7 44 -18 82 -24 86 -17 11 -34 129 -26 183
5 35 15 55 37 74 16 15 29 32 29 39 0 7 6 17 13 21 7 4 19 22 26 39 15 37 0
108 -24 118 -8 3 -15 12 -15 20 0 23 -28 70 -47 78 -51 20 -136 3 -160 -32 -8
-11 -20 -20 -27 -20 -13 0 -56 -80 -56 -104 0 -8 -5 -16 -12 -18 -7 -3 -15
-32 -19 -69 -11 -120 -33 -244 -44 -251 -16 -11 -14 -370 3 -375 7 -3 12 -24
12 -57 0 -29 6 -72 14 -97 8 -24 18 -97 21 -161 4 -65 11 -118 16 -118 5 0 9
-14 9 -30 0 -17 8 -48 18 -69 14 -27 16 -44 10 -62 -5 -13 -7 -36 -4 -51 3
-14 -1 -66 -8 -115 -7 -49 -11 -135 -8 -195 4 -100 3 -108 -14 -108 -12 0 -26
15 -38 39 -10 21 -28 44 -40 50 -39 19 -111 41 -138 41 -16 0 -28 4 -28 9 0 5
-30 12 -67 15 -38 4 -124 13 -193 22 -69 8 -151 14 -183 13 -33 -1 -62 3 -65
8 -8 12 -79 26 -142 28 -69 2 -214 28 -222 39 -12 17 16 116 32 116 4 0 15 27
24 60 9 32 21 62 26 65 6 4 10 15 10 25 0 12 10 21 30 25 16 4 30 13 30 21 0
8 6 14 14 14 7 0 19 6 25 14 7 8 27 17 46 20 18 4 35 11 37 16 2 6 27 13 56
17 48 5 52 4 52 -15 0 -35 22 -72 44 -74 39 -2 81 4 84 13 2 5 13 9 24 9 31 0
76 31 105 72 14 21 32 38 39 38 8 0 14 5 14 10 0 6 11 10 24 10 13 0 38 13 55
29 17 16 38 31 46 35 8 3 21 17 27 32 7 15 30 44 50 64 28 27 38 45 38 68 0
18 -3 32 -8 32 -4 0 -13 14 -21 31 -21 47 -67 58 -179 45 -35 -5 -70 -15 -79
-24 -12 -13 -35 -16 -103 -15 -75 1 -91 -1 -106 -18 -9 -10 -26 -19 -36 -19
-10 0 -21 -7 -24 -15 -6 -15 -47 -37 -91 -50 -13 -3 -23 -10 -23 -15 0 -5 -24
-16 -52 -26 -29 -9 -61 -25 -71 -35 -10 -11 -22 -19 -28 -19 -5 0 -19 -9 -31
-20 -12 -11 -32 -20 -44 -20 -12 0 -24 -7 -27 -14 -3 -8 -24 -20 -46 -26 -33
-9 -41 -15 -41 -34 0 -13 -7 -26 -15 -29 -7 -3 -24 -29 -36 -56 -12 -28 -25
-51 -29 -51 -5 0 -11 -15 -15 -32 -12 -59 -29 -98 -42 -98 -7 0 -13 -2 -13 -5
0 -3 -8 -41 -17 -83 -20 -93 -23 -267 -5 -299 7 -13 18 -23 25 -23 7 0 23 -12
36 -25 13 -14 28 -25 34 -25 9 0 77 -67 77 -76 0 -2 -16 -20 -35 -40 -19 -19
-35 -40 -35 -44 0 -5 -9 -11 -19 -15 -30 -9 -161 -144 -161 -165 0 -11 -9 -24
-19 -30 -14 -7 -22 -25 -26 -58 -8 -58 -22 -89 -45 -95 -11 -3 -21 -23 -30
-65 -9 -44 -17 -62 -31 -65 -16 -4 -19 -15 -19 -67 0 -92 17 -136 72 -189 27
-25 58 -49 71 -52 12 -3 78 -2 147 2 119 6 168 18 198 46 17 16 32 8 32 -16 0
-12 -14 -21 -50 -31 -27 -7 -50 -17 -50 -22 0 -4 -8 -8 -18 -8 -26 0 -196 -50
-202 -60 -8 -12 -138 -50 -171 -50 -16 0 -29 -4 -29 -9 0 -5 -24 -14 -52 -21
-29 -7 -67 -17 -84 -22 -17 -6 -47 -8 -67 -4 -31 6 -37 11 -37 32 0 29 -39
116 -57 127 -7 4 -13 18 -13 30 0 30 -33 137 -42 137 -13 0 -9 50 5 50 6 0 4
5 -5 11 -10 5 -18 18 -18 28 0 10 -9 26 -19 35 -10 9 -17 25 -14 34 2 10 -5
28 -16 41 -12 13 -21 27 -21 30 0 3 -10 18 -23 31 -13 14 -26 42 -30 63 -3 21
-13 52 -21 69 -9 17 -16 37 -16 45 0 7 -5 13 -10 13 -6 0 -15 12 -21 28 -29
77 -44 101 -63 104 -18 3 -22 12 -26 66 -3 34 -10 66 -15 70 -18 12 -42 56
-49 90 -4 17 -11 32 -15 32 -6 0 -32 55 -35 75 -3 23 -31 80 -48 97 -10 10
-18 26 -18 36 0 10 -8 27 -19 38 -10 11 -21 30 -25 41 -3 11 -18 26 -31 33
-20 11 -25 21 -25 50 0 21 -7 43 -15 50 -8 7 -15 21 -15 31 0 23 -21 69 -32
69 -4 0 -8 10 -8 23 0 12 -12 34 -27 47 -16 14 -36 42 -46 63 -9 21 -22 35
-27 32 -6 -4 -24 8 -40 25 -20 22 -42 34 -68 37 -40 5 -82 -9 -82 -29 0 -6
-12 -22 -26 -35 -18 -17 -24 -30 -20 -46 6 -26 -22 -115 -47 -141 -9 -11 -17
-26 -17 -33 0 -7 -9 -18 -21 -25 -11 -7 -27 -28 -36 -47 -9 -19 -24 -36 -34
-38 -9 -3 -28 -26 -41 -51 -12 -26 -26 -49 -30 -52 -4 -3 -12 -27 -18 -54 -10
-46 -26 -85 -39 -96 -13 -11 -31 -51 -31 -68 0 -11 -11 -31 -25 -46 -18 -19
-25 -38 -25 -65 0 -33 -21 -76 -50 -101 -3 -3 -14 -49 -25 -104 -10 -54 -25
-105 -33 -112 -8 -8 -9 -14 -3 -14 6 0 11 -7 11 -15 0 -8 -4 -15 -10 -15 -15
0 -12 -60 3 -61 6 -1 1 -4 -13 -8 -16 -4 -26 -15 -28 -30 -2 -13 -12 -25 -22
-28 -18 -5 -50 -73 -50 -105 0 -10 -11 -28 -26 -41 -19 -18 -26 -37 -31 -78
-5 -48 -8 -55 -27 -55 -15 1 -22 -6 -24 -24 -2 -14 -8 -29 -13 -35 -5 -5 -9
-17 -9 -26 0 -10 -6 -24 -13 -31 -18 -18 -35 -70 -43 -135 -4 -35 -11 -53 -20
-53 -9 0 -14 -12 -14 -33 0 -18 -9 -50 -20 -72 -11 -22 -20 -47 -20 -56 0 -10
-5 -19 -11 -21 -5 -2 -12 -30 -13 -63 -2 -33 -6 -68 -11 -77 -10 -25 -9 -164
2 -220 5 -26 7 -51 3 -55 -4 -4 -13 -40 -20 -79 l-13 -70 -53 -24 c-30 -12
-54 -26 -54 -31 0 -17 -106 -38 -165 -33 -65 6 -115 21 -115 35 0 5 -6 9 -14
9 -35 0 -146 42 -146 55 0 8 -12 18 -27 21 -16 4 -37 13 -48 20 -11 8 -32 14
-47 14 -16 0 -28 4 -28 9 0 9 -95 51 -116 51 -8 0 -14 5 -14 10 0 6 -5 10 -11
10 -18 0 -119 51 -119 60 0 5 -18 15 -40 21 -22 7 -51 22 -63 34 -25 24 -56
39 -75 36 -6 -1 -12 7 -12 19 0 11 -6 20 -13 20 -7 0 -23 9 -35 20 -12 11 -25
20 -30 20 -4 0 -18 14 -30 30 -13 17 -31 30 -42 30 -11 0 -20 7 -20 15 0 9
-12 18 -29 21 -17 4 -32 12 -35 20 -3 8 -12 14 -20 14 -7 0 -16 7 -20 15 -3 8
-22 22 -43 32 -24 12 -39 27 -43 43 -3 14 -15 29 -27 35 -12 5 -24 22 -27 38
-4 17 -14 31 -26 34 -19 5 -24 14 -21 40 1 6 -13 27 -32 46 -18 19 -39 47 -46
61 -8 14 -22 28 -33 32 -10 3 -18 14 -18 25 0 10 -4 19 -10 19 -5 0 -10 10
-10 22 0 28 -22 88 -32 88 -4 0 -8 6 -8 13 0 25 -25 66 -50 81 -55 32 -61 269
-8 297 23 12 23 33 1 54 -16 16 -16 18 0 27 9 5 17 20 17 33 0 13 4 26 9 29 5
3 7 14 4 25 -2 10 3 25 11 34 9 8 16 25 16 36 0 12 4 21 9 21 5 0 14 13 19 29
6 16 19 38 31 50 11 11 27 31 36 45 10 14 24 26 31 26 8 0 20 11 26 25 6 14
17 25 25 25 9 0 11 8 7 26 -5 20 -2 26 15 31 15 4 20 11 16 23 -4 12 5 26 27
44 18 15 45 37 60 49 15 12 40 32 54 45 15 12 30 22 35 22 14 0 86 76 93 98 4
12 13 22 19 23 57 4 148 31 173 52 9 6 24 20 35 30 10 9 26 17 34 17 8 0 15 4
15 8 0 5 19 17 43 27 75 31 91 40 109 58 10 9 26 17 36 17 10 0 28 9 40 20 12
11 27 20 35 20 7 0 24 12 37 27 18 21 21 30 11 45 -16 25 -14 28 15 28 19 0
25 -4 20 -15 -3 -8 -1 -15 5 -15 5 0 12 7 15 15 4 8 17 15 30 15 14 0 27 7 30
15 4 8 12 15 19 15 7 0 24 9 38 20 14 11 32 20 41 20 9 0 16 3 16 8 0 4 30 18
66 31 36 13 68 30 71 37 3 8 14 14 24 14 10 0 19 4 19 8 0 5 18 14 40 21 22 6
40 16 40 21 0 6 6 10 14 10 26 0 103 38 109 54 4 9 2 16 -3 16 -6 0 -10 -7
-10 -15 0 -8 -9 -15 -20 -15 -13 0 -20 7 -20 19 0 28 12 33 89 34 61 2 72 5
96 30 15 15 35 27 45 27 9 0 22 11 28 24 6 14 21 26 34 28 13 2 27 13 33 25 5
12 21 26 35 31 47 17 125 35 169 40 24 2 52 13 62 23 11 11 33 22 50 26 29 6
51 31 48 56 -3 28 2 37 26 37 31 0 75 20 100 45 21 22 81 49 128 59 15 4 27
11 27 16 0 6 6 10 14 10 29 0 141 41 149 55 4 8 14 15 22 15 23 0 84 34 85 47
0 6 14 14 31 18 21 5 35 17 46 40 11 24 20 31 34 28 11 -3 26 1 35 8 16 13 29
15 105 18 28 1 38 6 42 21 4 16 14 20 44 20 31 0 45 6 64 28 15 16 50 36 85
47 32 11 65 26 72 32 7 7 24 16 38 19 19 5 23 11 18 30 -5 18 -3 23 8 19 7 -3
42 1 78 8 60 12 65 15 70 42 5 30 6 30 62 27 42 -3 62 0 73 11 8 8 24 13 35
10 12 -3 22 1 26 11 3 9 15 16 26 16 10 0 31 6 46 14 15 7 44 16 64 20 21 4
38 11 38 16 0 6 6 10 13 10 7 0 31 9 53 19 22 11 53 23 69 27 16 4 41 18 56
31 21 19 40 25 85 27 33 2 60 8 62 14 2 7 19 12 37 12 19 0 40 7 49 15 8 8 32
15 55 15 22 0 46 7 55 15 8 8 26 15 39 15 14 0 27 6 30 13 2 7 24 12 58 13 92
2 223 24 231 38 4 8 27 17 51 20 24 4 54 16 65 26 12 11 32 20 45 20 48 0 87
13 112 36 14 13 34 24 45 24 10 0 20 5 22 12 3 7 42 13 114 15 60 2 122 8 138
14 16 5 44 9 63 9 19 0 41 6 49 14 8 8 36 18 62 21 93 12 177 29 183 38 3 5
48 13 100 17 87 8 167 26 179 40 8 9 122 30 163 30 21 0 54 7 74 15 19 8 48
15 64 15 16 0 29 5 29 10 0 6 8 10 18 10 9 1 31 7 47 16 l30 14 -27 -5 c-23
-4 -28 -2 -28 15 0 14 7 20 24 20 13 0 26 -6 28 -12 3 -9 10 -8 23 5 19 20 63
16 77 -6 9 -15 187 -14 197 1 3 5 54 13 114 16 111 7 151 17 177 47 8 10 35
20 60 23 24 3 50 12 56 21 8 10 18 13 32 8 11 -5 44 -6 71 -5 41 3 51 7 51 22
0 12 10 21 31 25 17 4 33 4 36 1 4 -3 -8 -9 -25 -12 -51 -10 -37 -24 23 -24
30 0 55 4 55 9 0 9 175 34 278 40 7 1 20 10 29 21 14 16 30 20 75 20 31 0 60
5 63 10 3 6 21 10 38 10 46 0 191 22 197 31 3 3 23 9 45 12 22 3 60 10 85 17
25 6 74 13 110 17 36 3 68 10 72 17 6 8 8 7 8 -1 0 -7 7 -13 15 -13 8 0 15 5
15 10 0 6 6 10 14 10 7 0 19 6 25 14 8 9 45 15 123 18 73 3 113 9 116 16 2 7
11 12 21 12 9 0 26 6 36 14 13 9 28 11 47 5 36 -10 299 5 393 22 39 7 73 18
77 25 4 6 34 15 65 18 133 15 135 16 129 42 -8 32 6 30 35 -5 23 -27 27 -28
74 -21 28 4 132 6 233 2 162 -4 182 -3 182 11 0 9 -5 19 -12 23 -18 11 18 32
58 32 18 0 34 -4 34 -9z m1204 5 c24 -9 19 -24 -8 -24 -31 0 -56 10 -56 21 0
10 40 12 64 3z m50 -25 c-3 -5 -10 -7 -15 -3 -5 3 -7 10 -3 15 3 5 10 7 15 3
5 -3 7 -10 3 -15z m-1958 -5 c28 -7 31 -19 7 -28 -11 -4 -22 -1 -29 8 -6 9
-19 16 -28 16 -10 0 -14 5 -11 11 4 6 14 8 22 5 8 -4 26 -9 39 -12z m557 9
c-7 -2 -21 -2 -30 0 -10 3 -4 5 12 5 17 0 24 -2 18 -5z m-783 -25 c17 -19 19
-24 6 -26 -21 -5 -56 16 -56 33 0 22 26 18 50 -7z m-104 -25 c-3 -4 -16 -1
-28 5 -18 8 -19 11 -5 11 9 1 17 7 17 14 0 6 5 4 11 -6 6 -10 8 -21 5 -24z
m2354 7 c0 -29 -2 -30 -22 -19 -32 16 -32 16 -17 33 22 25 39 19 39 -14z
m-2900 -22 c10 -6 5 -8 -19 -4 -18 3 -40 6 -47 6 -8 0 -14 5 -14 11 0 12 55 3
80 -13z m3030 2 c0 -5 -4 -10 -10 -10 -5 0 -10 5 -10 10 0 6 5 10 10 10 6 0
10 -4 10 -10z m-3226 -6 c9 -3 16 -13 16 -21 0 -20 -34 -12 -38 10 -4 19 -1
20 22 11z m2743 0 c-3 -3 -12 -4 -19 -1 -8 3 -5 6 6 6 11 1 17 -2 13 -5z m547
-19 c14 -13 26 -28 26 -34 0 -5 18 -12 40 -16 25 -4 40 -12 40 -21 0 -8 4 -14
8 -14 5 0 24 -13 42 -30 18 -16 44 -30 57 -30 15 0 28 -10 38 -30 9 -17 24
-30 34 -30 28 0 45 -25 32 -47 -6 -10 -11 -13 -11 -6 0 6 -9 15 -20 18 -11 3
-20 12 -20 19 0 8 -13 11 -37 9 -21 -2 -32 0 -25 3 16 7 15 22 -2 40 -19 19
-28 18 -53 -5 -21 -20 -21 -20 -27 5 -5 20 -11 23 -31 18 -20 -5 -25 -2 -25
13 0 24 -54 51 -116 60 -38 5 -44 9 -44 29 0 15 6 24 15 24 8 0 15 4 15 9 0 9
27 41 34 41 2 0 15 -11 30 -25z m-3244 0 c0 -8 -4 -15 -10 -15 -5 0 -7 7 -4
15 4 8 8 15 10 15 2 0 4 -7 4 -15z m3130 -15 c0 -5 -2 -10 -4 -10 -3 0 -8 5
-11 10 -3 6 -1 10 4 10 6 0 11 -4 11 -10z m-3220 -14 c0 -18 -30 -30 -43 -17
-5 5 -6 14 -3 20 10 16 46 13 46 -3z m-215 -18 c7 -7 -6 -9 -38 -5 -35 3 -50
1 -54 -9 -4 -11 -7 -11 -19 1 -8 7 -14 16 -14 19 0 16 107 11 125 -6z m105 18
c0 -3 -4 -8 -10 -11 -5 -3 -10 -1 -10 4 0 6 5 11 10 11 6 0 10 -2 10 -4z m430
-12 c0 -2 -9 -4 -21 -4 -11 0 -18 4 -14 10 5 8 35 3 35 -6z m-116 -6 c-6 -10
-4 -10 7 0 20 19 49 15 49 -7 0 -26 -44 -33 -70 -11 -15 13 -17 19 -8 23 22 9
29 7 22 -5z m-257 -90 c-3 -8 -6 -5 -6 6 -1 11 2 17 5 13 3 -3 4 -12 1 -19z
m-504 -15 c-7 -2 -19 -2 -25 0 -7 3 -2 5 12 5 14 0 19 -2 13 -5z m-28 -57 c12
-12 12 -15 -1 -20 -23 -9 -24 -8 -24 14 0 24 6 25 25 6z m-201 -51 c3 -8 2
-15 -3 -15 -5 0 -23 -3 -40 -6 -20 -4 -31 -3 -31 5 0 6 9 11 20 11 11 0 20 5
20 10 0 16 27 12 34 -5z m4381 -25 c-12 -19 -25 -10 -25 16 0 23 1 24 16 10 8
-9 12 -20 9 -26z m125 -26 c0 -13 5 -24 10 -24 6 0 10 -7 10 -15 0 -8 -4 -15
-9 -15 -5 0 -11 -10 -15 -22 -4 -17 -8 -20 -17 -11 -9 9 -9 19 0 41 7 16 9 41
5 57 -5 20 -4 26 5 21 6 -4 11 -18 11 -32z m102 -61 c7 -16 23 -37 36 -49 12
-11 27 -38 33 -59 6 -22 22 -50 36 -63 27 -24 27 -55 1 -60 -11 -2 -23 11 -37
42 -11 25 -25 46 -30 46 -6 0 -11 8 -11 18 0 11 -15 35 -34 54 -29 30 -42 60
-37 91 3 18 33 4 43 -20z m-5702 7 c0 -5 -5 -10 -11 -10 -5 0 -7 5 -4 10 3 6
8 10 11 10 2 0 4 -4 4 -10z m-180 -34 c0 -30 -15 -42 -24 -20 -10 27 -7 44 9
44 9 0 15 -9 15 -24z m416 -28 c-9 -5 -24 -7 -34 -5 -14 3 -12 6 8 14 29 12
50 5 26 -9z m-358 -47 c10 -6 8 -10 -10 -14 -41 -12 -55 -8 -34 8 23 17 26 18
44 6z m-653 -51 c-3 -5 -13 -10 -21 -10 -8 0 -12 5 -9 10 3 6 13 10 21 10 8 0
12 -4 9 -10z m215 -17 c-1 -23 -31 -41 -77 -47 -44 -5 -52 -4 -47 8 9 24 125
60 124 39z m6405 -162 c-8 -33 -22 -15 -30 38 -5 31 -3 46 7 52 16 10 32 -53
23 -90z m-6845 39 c0 -5 -7 -10 -15 -10 -8 0 -15 5 -15 10 0 6 7 10 15 10 8 0
15 -4 15 -10z m7021 -83 c-13 -13 -14 5 -3 43 l7 25 3 -29 c2 -16 -1 -33 -7
-39z m-201 18 c0 -8 -7 -15 -15 -15 -8 0 -15 7 -15 15 0 8 7 15 15 15 8 0 15
-7 15 -15z m73 -54 c18 -40 23 -67 6 -38 -5 9 -19 17 -29 17 -20 0 -37 40 -26
59 11 17 30 2 49 -38z m-7669 14 c3 -9 0 -15 -9 -15 -8 0 -15 7 -15 15 0 8 4
15 9 15 5 0 11 -7 15 -15z m348 -5 l22 -20 -34 3 c-22 3 -36 10 -38 21 -5 23
24 20 50 -4z m68 10 c0 -5 -4 -10 -10 -10 -5 0 -10 5 -10 10 0 6 5 10 10 10 6
0 10 -4 10 -10z m-220 -55 c0 -8 -4 -15 -9 -15 -5 0 -11 7 -15 15 -3 9 0 15 9
15 8 0 15 -7 15 -15z m-232 -11 c14 -15 14 -16 -3 -13 -10 2 -20 10 -23 17 -5
17 6 15 26 -4z m-233 -14 c-3 -5 -13 -10 -21 -10 -8 0 -12 5 -9 10 3 6 13 10
21 10 8 0 12 -4 9 -10z m305 -10 c0 -5 -9 -10 -20 -10 -11 0 -20 5 -20 10 0 6
9 10 20 10 11 0 20 -4 20 -10z m5170 -36 c0 -26 -17 -33 -26 -9 -8 20 3 48 16
40 5 -3 10 -17 10 -31z m2510 -29 c0 -51 -10 -69 -25 -44 -10 15 4 99 16 99 5
0 9 -25 9 -55z m-7915 6 c-8 -13 -35 -15 -35 -2 0 5 8 11 18 13 21 5 26 2 17
-11z m-255 -1 c0 -5 -11 -10 -25 -10 -14 0 -25 5 -25 10 0 6 11 10 25 10 14 0
25 -4 25 -10z m5710 -10 c9 -17 8 -20 -8 -20 -24 0 -32 8 -25 26 7 20 20 17
33 -6z m2680 16 c0 -3 -4 -8 -10 -11 -5 -3 -10 -1 -10 4 0 6 5 11 10 11 6 0
10 -2 10 -4z m-8200 -15 c0 -21 -13 -41 -26 -41 -14 0 -19 31 -7 43 10 10 33
8 33 -2z m4186 -53 c-5 -75 -3 -68 -20 -68 -9 0 -15 19 -20 56 -7 62 -3 74 25
74 18 0 19 -5 15 -62z m3742 14 c2 -15 -2 -22 -12 -22 -11 0 -16 9 -16 26 0
31 23 28 28 -4z m-2445 -26 c47 -47 49 -56 10 -56 -18 0 -23 6 -23 24 0 17 -7
26 -25 30 -16 4 -25 13 -25 26 0 30 12 25 63 -24z m-5918 4 c3 -5 1 -10 -4
-10 -6 0 -11 5 -11 10 0 6 2 10 4 10 3 0 8 -4 11 -10z m8395 -21 c0 -6 7 -17
15 -25 8 -9 15 -19 15 -24 0 -5 -7 -7 -15 -4 -10 4 -15 0 -15 -14 0 -11 5 -22
10 -24 11 -3 17 -105 6 -115 -12 -12 -17 5 -31 98 -18 117 -18 119 0 119 8 0
15 -5 15 -11z m-8520 -49 c0 -5 -5 -10 -11 -10 -5 0 -7 5 -4 10 3 6 8 10 11
10 2 0 4 -4 4 -10z m5980 -21 c0 -11 -5 -29 -10 -39 -8 -15 -6 -24 11 -41 26
-26 24 -27 -24 -21 -29 3 -39 10 -43 28 -7 28 2 44 25 44 14 0 17 6 13 25 -3
18 0 25 12 25 10 0 16 -8 16 -21z m-5846 -4 c3 -8 1 -15 -4 -15 -6 0 -10 7
-10 15 0 8 2 15 4 15 2 0 6 -7 10 -15z m4626 -44 c13 -26 13 -31 -5 -31 -11 0
-13 -8 -8 -30 5 -25 2 -30 -15 -30 -14 0 -24 10 -31 31 -16 46 -14 59 12 69
32 13 35 12 47 -9z m1207 -113 c18 -7 33 -18 33 -25 0 -17 -18 -16 -36 2 -9 8
-29 15 -45 15 -18 0 -28 4 -24 10 8 13 31 13 72 -2z m-1189 -47 c2 -19 10 -40
18 -48 19 -19 18 -53 -1 -53 -22 0 -18 -20 10 -46 27 -25 32 -40 14 -46 -11
-4 17 -77 36 -90 6 -5 6 -8 -1 -8 -7 0 -15 -12 -19 -27 -6 -27 -7 -27 -21 -9
-8 11 -14 27 -14 37 0 9 -6 19 -13 22 -12 4 -44 122 -39 141 5 17 -10 46 -24
46 -21 0 -18 75 3 100 25 29 47 21 51 -19z m3737 29 c9 -14 -14 -90 -26 -90
-6 0 -8 7 -5 16 3 9 6 31 6 50 0 33 12 45 25 24z m-2595 -65 c0 -11 9 -26 20
-33 29 -18 25 -29 -10 -29 -17 0 -26 3 -21 7 7 4 8 17 1 40 -6 19 -10 42 -10
50 0 24 20 -10 20 -35z m-6443 -61 c-3 -3 -12 -4 -19 -1 -8 3 -5 6 6 6 11 1
17 -2 13 -5z m8991 -38 c-7 -8 -16 -12 -21 -9 -11 7 2 23 19 23 12 0 12 -2 2
-14z m-2558 -36 c0 -5 11 -10 25 -10 18 0 23 -4 19 -15 -4 -8 -17 -15 -30 -15
-20 0 -24 -5 -24 -30 0 -28 -2 -29 -20 -18 -23 15 -27 43 -5 34 12 -4 15 3 15
29 0 19 5 35 10 35 6 0 10 -4 10 -10z m2570 -30 c0 -5 -7 -10 -15 -10 -8 0
-15 5 -15 10 0 6 7 10 15 10 8 0 15 -4 15 -10z m133 -35 c-7 -21 -13 -19 -13
6 0 11 4 18 10 14 5 -3 7 -12 3 -20z m-243 0 c0 -8 -2 -15 -4 -15 -2 0 -6 7
-10 15 -3 8 -1 15 4 15 6 0 10 -7 10 -15z m-3474 -32 c4 -21 14 -43 22 -49 9
-7 12 -18 8 -32 -9 -28 -26 -29 -26 -1 0 11 -4 18 -9 15 -8 -5 -21 47 -21 87
0 32 19 17 26 -20z m1028 -49 c25 -9 19 -24 -9 -24 -16 0 -25 6 -25 15 0 16 9
19 34 9z m5350 0 c25 -10 8 -24 -30 -24 -49 0 -44 20 8 29 3 0 13 -2 22 -5z
m-12474 -14 c0 -5 -4 -10 -10 -10 -5 0 -10 5 -10 10 0 6 5 10 10 10 6 0 10 -4
10 -10z m3030 -49 c0 -22 -7 -46 -15 -55 -13 -13 -13 -15 4 -21 16 -5 17 -9 7
-30 -6 -14 -14 -25 -18 -25 -5 0 -11 -1 -15 -2 -3 -2 -8 8 -9 22 -2 14 -6 42
-10 62 -6 34 -4 38 20 44 17 4 26 13 26 25 0 10 2 19 5 19 3 0 5 -18 5 -39z
m9024 13 c8 -21 3 -26 -18 -18 -20 8 -21 34 -2 34 8 0 17 -7 20 -16z m-4939
-14 c3 -5 1 -10 -4 -10 -6 0 -11 5 -11 10 0 6 2 10 4 10 3 0 8 -4 11 -10z
m4795 -5 c10 -12 7 -16 -16 -25 -34 -13 -54 1 -34 25 16 19 34 19 50 0z
m-5747 -35 c6 -16 15 -30 19 -30 4 0 8 -4 8 -10 0 -5 -9 -10 -20 -10 -18 0
-50 44 -50 70 0 23 32 8 43 -20z m3417 15 c0 -8 -7 -15 -15 -15 -16 0 -20 12
-8 23 11 12 23 8 23 -8z m-3512 -34 l3 -33 -22 20 c-13 13 -19 27 -15 37 10
26 31 11 34 -24z m3372 -52 c0 -11 -4 -17 -10 -14 -5 3 -10 13 -10 21 0 8 5
14 10 14 6 0 10 -9 10 -21z m-2355 -8 c-3 -6 -11 -11 -16 -11 -5 0 -4 6 3 14
14 16 24 13 13 -3z m-993 -33 c-9 -9 -12 -7 -12 12 0 19 3 21 12 12 9 -9 9
-15 0 -24z m828 7 c-7 -8 -16 -12 -21 -9 -13 8 -1 24 18 24 13 0 13 -3 3 -15z
m2470 -12 c0 -10 -7 -31 -15 -47 -8 -15 -15 -35 -15 -42 0 -8 -7 -14 -15 -14
-9 0 -15 9 -15 25 0 14 7 28 15 31 8 4 15 16 15 28 0 13 3 26 7 29 12 12 23 7
23 -10z m-2360 -8 c0 -8 -9 -15 -20 -15 -11 0 -20 7 -20 15 0 8 9 15 20 15 11
0 20 -7 20 -15z m824 0 c-4 -9 -19 -15 -35 -15 -19 0 -29 5 -29 15 0 10 11 15
35 15 26 0 33 -3 29 -15z m3216 -5 c0 -11 -7 -20 -15 -20 -8 0 -15 9 -15 20 0
11 7 20 15 20 8 0 15 -9 15 -20z m-11520 -5 c0 -8 -4 -15 -10 -15 -5 0 -7 7
-4 15 4 8 8 15 10 15 2 0 4 -7 4 -15z m6578 -32 c6 -15 12 -38 11 -52 l0 -26
-12 25 c-6 14 -14 27 -18 30 -3 3 -8 15 -11 28 -9 31 14 28 30 -5z m3330 8
c12 -7 12 -12 1 -30 -8 -11 -17 -21 -20 -21 -11 0 -19 29 -13 45 7 17 13 18
32 6z m-1446 -9 c10 -1 31 -15 47 -31 17 -16 46 -35 65 -42 19 -7 37 -20 41
-28 13 -36 39 -77 57 -89 10 -7 18 -21 18 -31 0 -21 22 -33 45 -25 12 5 15 -3
15 -35 0 -42 5 -47 29 -32 14 9 42 -12 53 -40 4 -11 -3 -14 -33 -11 -24 3 -39
0 -39 -7 0 -6 -10 -11 -23 -11 -13 0 -33 -9 -45 -21 -19 -17 -42 -22 -131 -28
-59 -5 -117 -14 -129 -20 -11 -6 -32 -11 -46 -11 -14 0 -26 -4 -26 -9 0 -5
-12 -11 -27 -14 -96 -19 -189 -42 -193 -48 -3 -4 -23 -9 -45 -12 -67 -9 -159
-36 -170 -49 -10 -13 -107 -40 -190 -54 -22 -4 -43 -11 -46 -16 -6 -9 -45 -16
-204 -38 -78 -11 -119 -21 -125 -31 -6 -8 -60 -18 -219 -39 -41 -6 -78 -15
-81 -21 -4 -6 -13 4 -20 21 -7 18 -18 37 -24 43 -40 43 -72 156 -48 171 6 3 8
14 5 24 -6 24 30 54 59 50 30 -4 35 -32 9 -55 -22 -18 -28 -43 -12 -43 22 0
59 21 96 54 22 20 50 39 63 42 12 3 22 10 22 15 0 5 7 9 15 9 8 0 31 17 52 38
20 20 46 42 58 47 11 6 26 23 33 38 7 15 19 27 27 27 8 0 20 9 28 21 12 17 29
21 88 25 91 6 135 19 142 43 3 13 27 25 76 40 39 12 71 26 71 31 0 19 40 50
65 50 14 0 25 4 25 9 0 16 86 33 151 29 58 -3 65 -1 74 20 5 12 19 22 30 22
11 0 36 6 56 13 30 10 199 16 261 9z m2563 -12 c-3 -5 -13 -10 -21 -10 -8 0
-14 5 -14 10 0 6 9 10 21 10 11 0 17 -4 14 -10z m-3525 -74 c0 -21 -15 -28
-45 -20 -39 10 -32 34 10 34 24 0 35 -5 35 -14z m1247 -18 c-3 -7 -5 -2 -5 12
0 14 2 19 5 13 2 -7 2 -19 0 -25z m-2141 5 c7 -10 14 -30 14 -45 0 -14 6 -29
13 -31 7 -4 6 -6 -5 -6 -37 -2 -48 10 -48 55 0 48 6 53 26 27z m-6966 -42 c0
-11 -4 -23 -10 -26 -6 -4 -10 5 -10 19 0 14 5 26 10 26 6 0 10 -9 10 -19z
m9155 -32 c10 -15 -1 -23 -20 -15 -9 3 -13 10 -10 16 8 13 22 13 30 -1z m995
-38 c0 -15 -11 -24 -63 -49 -5 -2 -7 11 -5 29 2 26 9 35 28 40 31 7 40 3 40
-20z m-3113 -8 l21 -17 -22 -17 c-18 -15 -19 -21 -8 -38 6 -11 12 -31 12 -43
0 -22 0 -22 -14 -3 -7 11 -17 31 -21 45 -4 14 -11 27 -16 30 -4 3 -11 18 -14
33 -6 24 -4 27 17 27 13 0 33 -8 45 -17z m-7207 -3 c0 -5 -4 -10 -10 -10 -5 0
-10 5 -10 10 0 6 5 10 10 10 6 0 10 -4 10 -10z m10230 -18 c0 -5 -5 -34 -11
-65 -10 -50 -15 -57 -35 -57 -20 0 -24 5 -24 30 0 20 -5 30 -15 30 -10 0 -15
-10 -15 -31 0 -20 -4 -29 -12 -27 -35 12 -5 113 35 121 40 8 77 7 77 -1z
m-10252 -13 c-2 -6 -8 -10 -13 -10 -5 0 -11 4 -13 10 -2 6 4 11 13 11 9 0 15
-5 13 -11z m9564 -58 c12 -12 18 -26 15 -35 -9 -24 -27 -19 -27 7 0 13 -5 28
-12 35 -20 20 1 13 24 -7z m503 -51 c-3 -5 -11 -10 -16 -10 -6 0 -7 5 -4 10 3
6 11 10 16 10 6 0 7 -4 4 -10z m45 -36 c0 -24 -5 -34 -15 -34 -11 0 -15 11
-15 40 0 31 3 38 15 34 9 -4 15 -19 15 -40z m-6470 0 c0 -2 -7 -4 -15 -4 -8 0
-15 4 -15 10 0 5 7 7 15 4 8 -4 15 -8 15 -10z m3653 -13 c15 -16 27 -33 27
-37 0 -11 42 -98 50 -104 4 -3 11 -16 15 -30 4 -14 14 -32 21 -41 9 -10 13
-31 10 -64 -5 -53 -15 -69 -38 -60 -17 7 -48 72 -48 103 0 12 -4 22 -10 22 -5
0 -10 13 -10 29 0 21 -6 32 -21 36 -15 5 -19 13 -16 27 7 23 -19 87 -42 105
-15 12 -14 14 3 28 26 20 27 20 59 -14z m2337 25 c0 -18 -15 -36 -31 -36 -12
0 -19 7 -19 20 0 15 7 20 25 20 14 0 25 -2 25 -4z m-160 -56 c0 -5 -7 -10 -16
-10 -8 0 -12 5 -9 10 3 6 10 10 16 10 5 0 9 -4 9 -10z m500 0 c12 -6 21 -7 25
0 3 5 20 7 38 3 63 -12 76 -43 27 -68 -36 -19 -50 -13 -50 21 0 23 -15 34 -22
15 -1 -5 -12 -11 -23 -13 -15 -2 -21 3 -23 25 -4 30 0 32 28 17z m-3715 -119
c3 -5 1 -12 -5 -16 -5 -3 -10 1 -10 9 0 18 6 21 15 7z m3765 -5 c0 -8 -4 -18
-10 -21 -5 -3 -10 -4 -10 -1 0 2 -3 11 -6 20 -4 11 -1 16 10 16 9 0 16 -6 16
-14z m-6810 -6 c0 -5 -4 -10 -10 -10 -5 0 -10 5 -10 10 0 6 5 10 10 10 6 0 10
-4 10 -10z m3150 0 c0 -5 -4 -10 -10 -10 -5 0 -10 5 -10 10 0 6 5 10 10 10 6
0 10 -4 10 -10z m-2333 -42 c-3 -8 -6 -5 -6 6 -1 11 2 17 5 13 3 -3 4 -12 1
-19z m-710 -4 c-3 -3 -12 -4 -19 -1 -8 3 -5 6 6 6 11 1 17 -2 13 -5z m6503
-44 c0 -5 -10 -12 -22 -16 -22 -7 -53 20 -42 37 6 10 64 -10 64 -21z m-3553
-12 c-3 -8 -6 -5 -6 6 -1 11 2 17 5 13 3 -3 4 -12 1 -19z m-2214 -48 c-3 -11
-9 -20 -14 -20 -5 0 -9 9 -9 20 0 11 6 20 14 20 9 0 12 -7 9 -20z m-4903 -11
c0 -5 -4 -9 -10 -9 -5 0 -10 7 -10 16 0 8 5 12 10 9 6 -3 10 -10 10 -16z
m10655 -39 c3 -5 -3 -10 -14 -10 -12 0 -21 -5 -21 -12 0 -6 -3 -9 -6 -5 -4 3
-4 13 -1 22 7 17 33 20 42 5z m-8685 -17 c0 -28 -16 -47 -34 -40 -9 4 -16 18
-16 32 0 20 5 25 25 25 17 0 25 -5 25 -17z m2980 4 c0 -19 -10 -27 -26 -20
-21 8 -17 33 6 33 11 0 20 -6 20 -13z m-15 -74 c3 -14 16 -25 31 -29 19 -5 22
-9 12 -15 -20 -13 -48 -11 -48 5 0 8 -7 16 -15 20 -8 3 -15 12 -15 19 0 8 -7
20 -15 27 -26 22 -16 32 14 14 17 -10 32 -28 36 -41z m5577 6 c4 -25 0 -33
-24 -45 -15 -8 -28 -19 -28 -25 0 -6 -7 -3 -16 5 -14 15 -14 17 0 32 9 8 16
23 16 33 0 43 46 44 52 0z m-4602 1 c0 -24 -22 -26 -44 -4 -22 21 -20 24 14
24 23 0 30 -4 30 -20z m4504 5 c-4 -8 -8 -15 -10 -15 -2 0 -4 7 -4 15 0 8 4
15 10 15 5 0 7 -7 4 -15z m156 1 c0 -8 -7 -16 -15 -20 -10 -4 -15 1 -15 14 0
11 7 20 15 20 8 0 15 -6 15 -14z m-4864 -52 c26 -9 54 -23 62 -31 8 -8 26 -19
39 -24 12 -4 23 -15 23 -23 0 -8 12 -24 27 -36 29 -22 53 -69 53 -101 0 -11 9
-27 20 -36 11 -10 20 -27 20 -38 0 -11 9 -40 20 -64 11 -24 20 -52 20 -62 0
-10 5 -19 10 -19 6 0 10 -11 10 -23 0 -13 7 -38 16 -55 21 -43 15 -112 -11
-126 -11 -6 -22 -13 -25 -16 -8 -8 -107 -40 -124 -40 -9 0 -19 -7 -22 -15 -3
-8 -45 -27 -92 -42 -48 -15 -88 -31 -90 -35 -5 -12 -32 -10 -32 2 0 15 -21 12
-34 -5 -6 -8 -42 -22 -81 -32 -38 -9 -71 -20 -73 -25 -2 -4 -11 -8 -20 -8 -18
0 -78 -18 -104 -31 -10 -5 -29 -9 -43 -9 -14 0 -25 -4 -25 -8 0 -8 -46 -20
-183 -47 -37 -8 -74 -21 -82 -29 -13 -13 -96 -36 -130 -36 -8 0 -19 -9 -25
-20 -7 -13 -21 -20 -40 -20 -16 0 -32 -5 -35 -11 -4 -6 -19 -7 -35 -4 -16 3
-31 2 -35 -4 -3 -6 -15 -11 -25 -11 -10 0 -20 -4 -22 -8 -4 -11 -128 -52 -156
-52 -31 0 -37 19 -9 29 13 5 27 17 30 25 4 9 14 16 24 16 22 1 47 19 55 41 3
8 26 21 49 28 24 7 52 22 62 32 10 10 26 19 36 19 10 0 24 12 32 28 8 15 39
52 70 82 30 30 61 70 68 88 8 17 17 32 22 32 5 0 9 6 9 14 0 18 22 26 49 19
12 -3 21 -13 21 -24 0 -22 32 -39 38 -21 2 7 12 12 23 12 10 0 19 5 19 10 0 6
11 10 24 10 13 0 29 7 36 15 7 8 27 17 46 21 22 4 36 13 40 28 4 11 11 24 16
27 6 4 14 43 19 89 10 89 16 105 54 146 14 15 25 32 25 38 0 6 12 22 25 35 14
13 25 27 25 31 0 8 26 39 107 128 24 26 43 50 43 54 0 10 101 108 111 108 4 0
29 -7 55 -16z m1330 -8 c3 -13 16 -29 30 -36 24 -14 32 -30 14 -30 -5 0 -10
-7 -10 -15 0 -8 9 -15 20 -15 11 0 20 -4 20 -8 0 -4 16 -25 35 -46 19 -21 35
-46 35 -56 0 -10 3 -32 6 -49 5 -24 3 -31 -10 -31 -10 0 -16 8 -16 21 0 12 -8
23 -20 26 -11 3 -20 14 -20 24 0 11 -4 19 -10 19 -5 0 -10 7 -10 15 0 9 -11
20 -24 24 -16 7 -27 23 -37 56 -8 26 -22 51 -31 56 -26 14 -24 69 2 69 12 0
22 -9 26 -24z m-5146 -16 c10 -19 9 -20 -17 -14 -35 8 -37 10 -28 23 10 18 33
13 45 -9z m138 -2 c2 -8 -4 -21 -13 -28 -14 -12 -18 -11 -26 1 -5 8 -9 21 -9
30 0 20 44 18 48 -3z m22 -47 c0 -11 8 -22 18 -26 13 -3 19 -16 20 -37 0 -17
6 -34 13 -38 20 -13 1 -27 -33 -26 -31 1 -33 3 -33 39 0 32 -3 37 -22 37 -13
0 -23 5 -23 10 0 12 41 58 53 59 4 1 7 -8 7 -18z m8372 -6 c-2 -14 -8 -25 -12
-25 -4 0 -5 11 -2 25 2 14 8 25 12 25 4 0 5 -11 2 -25z m-3486 -30 c3 -25 10
-45 15 -45 5 0 9 -9 9 -19 0 -11 5 -23 10 -26 6 -3 10 -16 10 -29 0 -22 28
-60 51 -68 19 -6 1 -45 -24 -52 -12 -3 -33 -6 -47 -6 -14 0 -34 -7 -44 -15
-11 -8 -41 -18 -68 -21 -26 -4 -48 -10 -48 -14 0 -3 -17 -12 -37 -18 -39 -12
-52 -5 -53 27 0 18 39 81 51 81 5 0 9 6 9 13 0 7 9 29 20 50 11 20 20 45 20
56 0 10 7 21 15 25 8 3 15 11 15 18 1 16 35 58 48 58 5 0 12 7 16 15 10 28 25
15 32 -30z m-946 -32 c0 -7 -4 -13 -10 -13 -5 0 -10 12 -10 28 0 21 2 24 10
12 5 -8 10 -21 10 -27z m4356 20 c7 -10 13 -22 14 -28 0 -5 -5 -3 -10 5 -6 10
-10 11 -10 3 0 -7 -9 -13 -20 -13 -15 0 -20 7 -20 25 0 30 26 34 46 8z m-5396
-68 c0 -8 -2 -15 -4 -15 -2 0 -6 7 -10 15 -3 8 -1 15 4 15 6 0 10 -7 10 -15z
m170 6 c0 -5 -7 -11 -15 -15 -9 -3 -15 0 -15 9 0 8 7 15 15 15 8 0 15 -4 15
-9z m-3145 -55 c4 -18 6 -42 5 -52 -5 -47 2 -73 30 -104 16 -18 32 -48 36 -66
3 -18 12 -35 20 -38 8 -3 14 -16 14 -29 0 -14 7 -30 15 -37 8 -7 15 -19 15
-26 0 -8 9 -22 20 -31 11 -10 20 -24 20 -31 0 -18 31 -75 47 -85 6 -4 19 -31
28 -60 10 -28 23 -56 29 -62 7 -5 21 -35 31 -65 11 -30 25 -60 32 -66 16 -14
33 -59 33 -90 0 -13 9 -29 20 -36 23 -14 28 -73 8 -81 -10 -4 -10 -8 1 -15 9
-6 16 -47 21 -122 5 -62 14 -118 19 -123 6 -6 11 -26 11 -43 0 -18 7 -40 16
-49 18 -18 31 -59 47 -152 6 -35 15 -63 19 -63 4 0 8 -11 8 -24 0 -24 -9 -30
-89 -55 -19 -6 -47 -11 -62 -11 -16 0 -29 -3 -29 -7 0 -14 -74 -41 -125 -47
-27 -4 -51 -11 -53 -16 -2 -6 -11 -10 -21 -10 -9 0 -25 -6 -36 -14 -11 -7 -35
-17 -54 -21 -19 -4 -41 -13 -48 -20 -7 -7 -21 -11 -32 -8 -11 3 -45 -4 -76
-16 -31 -12 -64 -21 -75 -21 -11 0 -24 -8 -29 -19 -6 -10 -25 -21 -43 -24 -78
-12 -163 -30 -168 -37 -3 -3 -34 -17 -70 -30 -36 -13 -71 -30 -78 -37 -7 -7
-25 -13 -39 -13 -14 0 -39 -6 -56 -14 -66 -29 -72 -27 -74 21 -1 23 3 43 7 43
5 0 12 22 16 49 3 28 12 52 19 55 8 3 11 13 8 26 -3 12 -1 31 5 43 10 20 14
38 29 110 3 15 0 34 -7 42 -10 13 -9 15 11 15 35 0 49 37 37 96 -10 46 -9 48
21 74 17 15 31 37 31 48 0 12 5 24 10 27 6 3 10 24 10 46 0 38 12 69 38 97 7
8 11 21 7 30 -3 8 6 32 20 53 14 21 25 43 25 49 0 5 8 18 19 29 10 10 21 40
25 70 5 35 11 51 21 51 8 0 15 5 15 10 0 6 -5 10 -11 10 -6 0 -4 7 4 15 9 8
23 35 32 60 10 25 21 45 24 45 6 0 25 39 35 76 4 11 16 31 28 44 22 24 28 88
8 100 -15 9 -18 199 -3 208 6 4 15 20 18 35 4 15 18 36 31 46 13 10 24 28 24
40 0 12 4 21 10 21 5 0 7 6 4 14 -3 8 2 26 11 40 10 14 15 33 11 41 -4 11 3
19 19 25 15 6 25 17 25 29 0 10 7 22 16 25 8 3 12 10 9 16 -3 5 1 10 9 10 9 0
16 5 16 10 0 25 20 7 25 -24z m129 5 c7 -11 -19 -63 -27 -54 -14 13 -7 63 7
63 8 0 17 -4 20 -9z m8134 -3 c-2 -6 -10 -14 -16 -16 -7 -2 -10 2 -6 12 7 18
28 22 22 4z m-128 -7 c0 -5 -7 -12 -16 -15 -24 -9 -28 -7 -14 9 14 17 30 20
30 6z m-5154 -26 c-9 -9 -16 -13 -16 -8 0 12 22 34 28 28 2 -2 -3 -11 -12 -20z
m5114 -30 c0 -3 -10 -15 -21 -26 -16 -16 -23 -18 -29 -9 -10 16 9 39 33 40 9
0 17 -2 17 -5z m-3970 -15 c0 -5 -5 -10 -11 -10 -5 0 -7 5 -4 10 3 6 8 10 11
10 2 0 4 -4 4 -10z m-2536 -15 c8 -8 19 -15 25 -15 24 0 20 -22 -11 -54 -38
-38 -60 -36 -83 8 -18 35 -18 36 -1 36 8 0 16 -6 19 -12 2 -8 8 -9 13 -4 5 5
4 11 -3 13 -7 3 -13 13 -13 24 0 23 32 26 54 4z m110 -41 c10 -27 7 -44 -9
-44 -20 0 -52 33 -47 48 6 18 49 15 56 -4z m-1468 -7 c2 -2 1 -13 -3 -25 -6
-25 -21 -29 -29 -7 -4 8 -17 15 -30 15 -25 0 -32 15 -11 24 11 5 67 0 73 -7z
m1572 -13 c28 -8 29 -30 0 -37 -12 -4 -19 -9 -15 -13 14 -14 -12 -42 -34 -37
-12 3 -24 1 -28 -5 -8 -13 -77 -20 -88 -8 -4 4 -3 10 3 14 6 4 13 15 17 25 5
13 19 17 59 18 29 1 43 4 31 6 -13 2 -23 11 -23 18 0 7 10 16 23 18 12 2 24 5
27 6 3 0 15 -2 28 -5z m2378 -18 c8 -8 14 -20 14 -26 0 -6 7 -13 15 -16 22 -9
18 -34 -4 -34 -32 0 -51 11 -51 30 0 10 -5 20 -12 22 -9 3 -8 9 2 21 18 20 18
20 36 3z m-3848 -54 c4 -38 -15 -43 -24 -7 -3 14 -13 25 -23 25 -14 0 -14 2
-1 10 26 17 45 7 48 -28z m1652 5 c0 -18 -2 -19 -10 -7 -13 20 -13 43 0 35 6
-3 10 -16 10 -28z m357 7 c-9 -9 -28 6 -21 18 4 6 10 6 17 -1 6 -6 8 -13 4
-17z m80 0 c3 -8 1 -20 -6 -27 -8 -8 -11 -8 -11 0 0 6 -3 18 -6 27 -3 9 -1 16
5 16 7 0 14 -7 18 -16z m-547 -5 c0 -17 -40 -49 -62 -49 -23 0 -23 14 -1 40
19 21 63 28 63 9z m678 -8 c12 -10 22 -23 22 -29 0 -5 6 -10 13 -9 37 1 57 -4
57 -16 0 -16 31 -42 50 -42 10 0 14 -8 13 -22 -3 -24 26 -46 55 -41 9 1 23 -1
30 -5 17 -11 15 -37 -2 -37 -18 0 -30 -33 -21 -60 5 -16 2 -20 -14 -20 -12 0
-21 -4 -21 -10 0 -5 -7 -7 -15 -4 -8 4 -15 15 -15 26 0 21 -27 53 -44 53 -6 0
-12 10 -14 22 -2 12 -14 28 -26 37 -14 9 -28 32 -34 58 -8 31 -19 48 -42 61
-29 17 -38 36 -23 50 8 9 7 10 31 -12z m-948 -7 c0 -8 -4 -12 -10 -9 -5 3 -10
10 -10 16 0 5 5 9 10 9 6 0 10 -7 10 -16z m6270 2 c0 -8 -4 -18 -10 -21 -5 -3
-10 3 -10 14 0 12 5 21 10 21 6 0 10 -6 10 -14z m126 -12 c-4 -9 -9 -15 -11
-12 -3 3 -3 13 1 22 4 9 9 15 11 12 3 -3 3 -13 -1 -22z m-7756 -12 c0 -14 -11
-21 -26 -15 -21 8 -17 23 6 23 11 0 20 -4 20 -8z m2062 -11 c11 -11 21 -31 21
-44 0 -23 4 -25 63 -32 35 -4 64 -11 64 -15 0 -5 27 -17 60 -26 49 -14 60 -20
60 -38 0 -12 -9 -27 -20 -34 -11 -7 -20 -20 -20 -31 0 -12 -14 -23 -40 -34
-23 -9 -40 -22 -40 -31 0 -8 -13 -22 -29 -30 -16 -9 -31 -22 -34 -31 -4 -8
-15 -15 -26 -15 -11 0 -28 -10 -38 -22 -10 -13 -44 -36 -75 -51 -32 -15 -58
-31 -58 -35 0 -12 -49 -30 -68 -26 -9 2 -31 -8 -49 -24 -20 -18 -59 -36 -100
-47 -37 -10 -72 -24 -78 -31 -11 -14 -116 -32 -229 -41 -64 -5 -70 -4 -87 18
-24 32 -27 170 -4 189 8 7 15 18 15 24 0 6 12 22 25 35 14 13 25 31 25 40 0
18 38 41 65 41 8 0 15 4 15 9 0 5 13 14 29 19 20 7 31 19 36 40 3 17 14 33 23
36 47 16 92 60 92 90 0 38 12 42 125 41 l110 0 -3 28 c-4 34 15 36 44 2 26
-31 98 -45 107 -21 4 10 1 16 -9 16 -18 0 -44 23 -44 39 0 18 50 12 72 -8z
m92 -7 c22 -9 20 -34 -3 -34 -30 0 -51 11 -51 26 0 15 27 18 54 8z m5436 -14
c0 -12 -7 -20 -16 -20 -24 0 -69 -51 -54 -60 7 -5 2 -9 -14 -12 -39 -8 -34 29
9 75 39 41 75 49 75 17z m-7547 -40 c16 -15 21 -32 21 -61 -1 -24 2 -36 6 -28
6 9 12 9 24 -4 21 -21 20 -25 -6 -29 -17 -2 -25 -12 -29 -38 l-6 -35 -2 38 c0
20 -5 37 -11 37 -5 0 -10 9 -10 20 0 11 5 20 12 20 7 0 5 5 -5 13 -28 21 -44
87 -21 87 3 0 15 -9 27 -20z m85 -15 c-3 -3 -13 -2 -22 1 -14 5 -15 9 -4 15
13 8 36 -6 26 -16z m3974 -20 c4 -7 20 -16 35 -20 57 -14 75 -55 24 -55 -18 0
-34 8 -44 23 l-16 22 0 -22 c-1 -28 -21 -30 -28 -4 -2 10 -16 24 -29 31 -26
14 -32 35 -11 43 18 7 61 -4 69 -18z m152 0 c4 -11 -2 -15 -22 -14 -17 1 -20
3 -9 6 9 2 17 9 17 14 0 14 7 11 14 -6z m-4878 -30 c-3 -9 -11 -13 -16 -10 -8
5 -7 11 1 21 14 18 24 11 15 -11z m812 3 c-7 -19 -38 -22 -38 -4 0 10 9 16 21
16 12 0 19 -5 17 -12z m7365 -18 c-3 -11 -13 -20 -22 -20 -9 0 -22 -5 -29 -12
-9 -9 -12 -7 -12 10 0 14 9 26 23 32 35 14 46 12 40 -10z m-3513 -24 c0 -21
-6 -25 -41 -31 -22 -4 -43 -4 -46 -1 -4 3 1 6 9 6 9 0 19 11 22 25 9 35 56 36
56 1z m3297 -2 c-3 -3 -12 -4 -19 -1 -8 3 -5 6 6 6 11 1 17 -2 13 -5z m-3227
-24 c0 -5 -7 -10 -15 -10 -8 0 -15 5 -15 10 0 6 7 10 15 10 8 0 15 -4 15 -10z
m-3910 -21 c0 -11 -4 -17 -10 -14 -5 3 -10 13 -10 21 0 8 5 14 10 14 6 0 10
-9 10 -21z m7110 7 c0 -8 8 -17 18 -19 10 -3 6 -5 -10 -6 -22 -1 -28 4 -28 19
0 11 5 20 10 20 6 0 10 -6 10 -14z m-8050 -17 c0 -11 -4 -18 -10 -14 -5 3 -7
12 -3 20 7 21 13 19 13 -6z m3324 -5 c8 -31 3 -39 -19 -31 -19 8 -20 57 -1 57
8 0 17 -12 20 -26z m-2344 -10 c0 -2 -7 -4 -15 -4 -8 0 -15 4 -15 10 0 5 7 7
15 4 8 -4 15 -8 15 -10z m-80 -54 c5 0 10 6 13 13 8 23 21 -4 27 -57 3 -30 4
-59 2 -65 -7 -20 -31 21 -32 52 0 16 -9 36 -20 45 -10 10 -22 31 -25 47 l-6
30 17 -32 c9 -18 20 -33 24 -33z m7055 5 c0 -11 4 -26 8 -33 5 -7 6 -24 3 -37
-8 -32 -36 -22 -36 12 0 23 -3 25 -32 19 -18 -4 -34 -11 -36 -16 -6 -16 -21
-11 -50 15 -15 14 -21 25 -14 25 6 0 12 8 12 18 0 15 10 17 73 17 65 0 72 -2
72 -20z m-188 -21 c-3 -3 -12 -4 -19 -1 -8 3 -5 6 6 6 11 1 17 -2 13 -5z m253
-4 c0 -5 -4 -10 -10 -10 -5 0 -10 5 -10 10 0 6 5 10 10 10 6 0 10 -4 10 -10z
m-7040 -30 c0 -5 7 -10 16 -10 8 0 22 -6 29 -14 12 -12 12 -15 -2 -21 -11 -3
-22 0 -29 9 -6 9 -16 16 -23 16 -6 0 -11 7 -11 15 0 8 5 15 10 15 6 0 10 -4
10 -10z m6803 -27 c-9 -22 -23 -14 -23 12 0 21 2 24 14 13 7 -7 11 -19 9 -25z
m-7713 2 c0 -8 -4 -15 -10 -15 -5 0 -7 7 -4 15 4 8 8 15 10 15 2 0 4 -7 4 -15z
m3086 -12 c-10 -10 -19 5 -10 18 6 11 8 11 12 0 2 -7 1 -15 -2 -18z m-33 0
c-7 -2 -13 -11 -13 -19 0 -16 -48 -50 -58 -40 -3 4 0 11 7 15 11 7 11 9 0 13
-24 8 13 37 46 37 17 0 24 -3 18 -6z m4797 -15 c0 -18 -2 -20 -9 -8 -6 8 -7
18 -5 22 9 14 14 9 14 -14z m-68 -13 c9 -19 9 -28 0 -37 -9 -9 -12 -7 -12 8 0
14 -2 16 -9 5 -11 -17 -31 -6 -31 18 0 39 35 43 52 6z m-7859 -11 c9 -9 -3
-34 -17 -34 -6 0 -18 5 -26 10 -13 9 -13 11 0 20 17 11 34 13 43 4z m991 -30
c9 -3 16 -17 16 -30 0 -22 -2 -23 -20 -12 -11 7 -20 21 -20 30 0 20 1 21 24
12z m1936 -34 c0 -17 -4 -19 -27 -14 -36 9 -42 14 -15 14 12 0 22 5 22 10 0 6
5 10 10 10 6 0 10 -9 10 -20z m-1019 -23 c-1 -12 -15 -9 -19 4 -3 6 1 10 8 8
6 -3 11 -8 11 -12z m949 -17 c0 -17 7 -33 17 -38 15 -9 15 -11 1 -26 -22 -21
-25 -21 -33 12 -16 56 -15 82 0 82 10 0 15 -10 15 -30z m-2890 -36 c0 -17 -22
-14 -28 4 -2 7 3 12 12 12 9 0 16 -7 16 -16z m2785 -14 c17 -7 15 -9 -12 -9
-28 -1 -33 -5 -33 -25 0 -16 -7 -26 -22 -30 -43 -11 -49 -8 -46 27 3 29 6 32
35 33 18 0 36 3 39 7 9 8 13 8 39 -3z m145 -44 c0 -10 -7 -12 -22 -8 -21 5
-21 6 -2 13 10 4 20 8 22 8 1 1 2 -5 2 -13z m-3010 -46 c0 -5 -4 -10 -10 -10
-5 0 -10 5 -10 10 0 6 5 10 10 10 6 0 10 -4 10 -10z m3030 3 c0 -10 -32 -43
-42 -43 -4 0 -8 7 -8 15 0 8 7 15 15 15 8 0 15 5 15 10 0 6 5 10 10 10 6 0 10
-3 10 -7z m-1807 -39 c8 -8 -3 -34 -14 -34 -5 0 -9 9 -9 20 0 19 11 26 23 14z
m113 -58 c17 -18 18 -36 2 -36 -7 0 -5 -5 4 -12 17 -13 34 -58 23 -58 -13 0
-31 26 -47 66 -21 51 -12 69 18 40z m-1199 -72 c-3 -3 -12 -4 -19 -1 -8 3 -5
6 6 6 11 1 17 -2 13 -5z m2326 -59 c-1 -5 -13 -12 -25 -13 -13 -2 -27 -10 -31
-18 -4 -8 -17 -14 -27 -14 -25 0 -27 35 -2 49 21 13 88 10 85 -4z m-2403 -16
c0 -6 10 -19 23 -30 12 -10 16 -18 10 -19 -7 0 -13 -7 -13 -15 0 -8 -7 -15
-15 -15 -16 0 -40 74 -30 90 7 12 25 4 25 -11z m1311 11 c6 0 5 -8 -1 -20 -16
-29 -40 -25 -40 6 0 20 4 25 16 20 9 -3 20 -6 25 -6z m1328 -37 c13 -25 0 -31
-28 -14 -12 8 -12 11 0 24 8 8 15 14 15 13 1 0 7 -11 13 -23z m-1282 -45 c-3
-8 -6 -5 -6 6 -1 11 2 17 5 13 3 -3 4 -12 1 -19z m-197 -18 c18 -22 25 -43 25
-75 1 -25 0 -45 -2 -45 -1 0 -14 11 -28 25 -27 24 -48 86 -38 111 8 20 15 17
43 -16z m227 -60 c16 -55 32 -78 34 -47 1 14 17 -22 18 -40 1 -8 -12 -13 -31
-13 -23 0 -29 3 -19 9 17 11 6 32 -13 25 -9 -4 -15 8 -19 37 -3 23 -11 45 -18
49 -9 6 -9 12 2 24 22 24 27 20 46 -44z m1023 -46 c0 -14 -4 -23 -10 -19 -5 3
-10 15 -10 26 0 10 5 19 10 19 6 0 10 -12 10 -26z m-1200 -73 c0 -16 6 -31 15
-35 19 -7 20 -46 1 -46 -39 0 -64 38 -36 55 6 3 7 17 4 31 -4 14 -2 24 5 24 6
0 11 -13 11 -29z m752 -3 c-9 -9 -12 -7 -12 12 0 19 3 21 12 12 9 -9 9 -15 0
-24z m-2065 -31 c-2 -6 -7 -12 -13 -14 -15 -4 -37 14 -30 25 8 13 48 3 43 -11z
m1533 13 c0 -5 -6 -10 -14 -10 -8 0 -18 5 -21 10 -3 6 3 10 14 10 12 0 21 -4
21 -10z m410 -14 c0 -2 -3 -11 -6 -20 -9 -23 -24 -20 -24 4 0 11 7 20 15 20 8
0 15 -2 15 -4z m-2130 -62 c0 -15 -10 -17 -34 -8 -27 10 -19 32 9 26 14 -2 25
-11 25 -18z m1766 11 c19 -14 19 -14 -1 -15 -11 -1 -14 -4 -7 -7 16 -6 16 -31
-1 -47 -6 -7 -29 -13 -51 -14 -41 -2 -41 -1 7 52 9 11 17 26 17 33 0 17 12 16
36 -2z m194 0 c0 -8 -4 -15 -9 -15 -5 0 -14 7 -21 15 -10 13 -9 15 9 15 12 0
21 -6 21 -15z m-1900 -46 c0 -12 5 -16 15 -13 9 4 18 -1 21 -10 10 -25 -1 -30
-35 -15 -28 13 -46 43 -35 60 8 14 34 -2 34 -22z m17 9 c-3 -8 -6 -5 -6 6 -1
11 2 17 5 13 3 -3 4 -12 1 -19z m-109 -30 c4 -22 -27 -58 -44 -51 -8 3 -14 -2
-14 -11 0 -19 -16 -21 -26 -4 -4 6 -2 14 4 16 7 2 12 10 12 18 0 8 7 17 15 20
8 4 15 13 15 21 0 20 34 12 38 -9z m2092 -8 c0 -5 -7 -10 -16 -10 -8 0 -12 5
-9 10 3 6 10 10 16 10 5 0 9 -4 9 -10z m-510 -35 c0 -7 6 -20 13 -27 18 -19
47 -86 47 -108 0 -10 -8 -21 -19 -25 -22 -7 -69 9 -54 18 12 7 -14 89 -29 95
-16 7 -8 60 10 65 22 5 32 -1 32 -18z m297 3 c-3 -8 -6 -5 -6 6 -1 11 2 17 5
13 3 -3 4 -12 1 -19z m-1756 -31 c-13 -13 -26 -3 -16 12 3 6 11 8 17 5 6 -4 6
-10 -1 -17z m1363 -14 c-9 -38 -13 -41 -28 -20 -7 9 -18 17 -25 17 -15 0 -14
17 2 23 6 3 22 6 35 6 19 1 22 -3 16 -26z m416 11 c0 -8 -5 -12 -10 -9 -6 4
-8 11 -5 16 9 14 15 11 15 -7z m77 5 c-14 -8 -22 -8 -30 0 -8 8 -3 11 19 11
25 -1 27 -2 11 -11z m-166 -13 c-6 -7 -9 -21 -5 -30 5 -13 0 -16 -26 -16 -29
0 -31 2 -19 18 18 23 41 42 52 42 5 0 4 -6 -2 -14z m-1661 -16 c0 -5 -4 -10
-10 -10 -5 0 -10 5 -10 10 0 6 5 10 10 10 6 0 10 -4 10 -10z m1180 -34 c0 -16
-14 -36 -26 -36 -14 0 -19 22 -7 33 7 8 33 10 33 3z m194 -70 c-5 -12 -10 -14
-19 -6 -7 6 -21 7 -31 3 -17 -6 -17 -5 -4 8 32 33 67 29 54 -5z m-157 -2 c-3
-3 -12 -4 -19 -1 -8 3 -5 6 6 6 11 1 17 -2 13 -5z m308 -4 c8 -13 15 -102 9
-112 -9 -14 -34 5 -34 26 0 12 -4 26 -9 32 -13 13 -1 64 15 64 7 0 16 -5 19
-10z m195 -5 c7 -8 9 -23 6 -32 -6 -14 -9 -15 -15 -4 -5 7 -14 10 -20 7 -7 -4
-11 0 -11 12 0 33 19 42 40 17z m-633 -31 c-3 -3 -12 -4 -19 -1 -8 3 -5 6 6 6
11 1 17 -2 13 -5z m-319 -46 c-2 -15 -10 -23 -23 -23 -13 0 -21 8 -23 23 -3
18 1 22 23 22 22 0 26 -4 23 -22z m189 16 c-3 -3 -12 -4 -19 -1 -8 3 -5 6 6 6
11 1 17 -2 13 -5z m477 -19 c3 -9 0 -15 -9 -15 -9 0 -12 6 -9 15 4 8 7 15 9
15 2 0 5 -7 9 -15z m356 -2 c11 -10 20 -28 20 -40 0 -20 -5 -23 -35 -23 -38 0
-43 10 -22 53 14 32 12 31 37 10z m-1850 -33 c0 -5 -4 -10 -10 -10 -5 0 -10 5
-10 10 0 6 5 10 10 10 6 0 10 -4 10 -10z m1630 -26 c0 -9 -5 -14 -12 -12 -18
6 -21 28 -4 28 9 0 16 -7 16 -16z m-1020 -20 c0 -2 -7 -4 -15 -4 -8 0 -15 4
-15 10 0 5 7 7 15 4 8 -4 15 -8 15 -10z m215 6 c3 -5 -1 -10 -9 -10 -9 0 -16
5 -16 10 0 6 4 10 9 10 6 0 13 -4 16 -10z m835 -20 c0 -5 -7 -7 -15 -4 -8 4
-15 8 -15 10 0 2 7 4 15 4 8 0 15 -4 15 -10z m-813 -32 c-3 -8 -6 -5 -6 6 -1
11 2 17 5 13 3 -3 4 -12 1 -19z m-157 2 c0 -5 -4 -10 -10 -10 -5 0 -10 5 -10
10 0 6 5 10 10 10 6 0 10 -4 10 -10z m1224 -26 c19 -7 21 -40 4 -47 -10 -3
-10 -8 -2 -17 7 -6 9 -21 7 -31 -5 -19 -6 -19 -23 -2 -9 10 -19 38 -22 61 -6
43 0 50 36 36z m-1394 -34 c-12 -23 -40 -27 -40 -6 0 14 14 24 38 25 10 1 10
-4 2 -19z m1197 -36 c-3 -3 -12 -4 -19 -1 -8 3 -5 6 6 6 11 1 17 -2 13 -5z
m-7 -60 c0 -2 -7 -4 -15 -4 -8 0 -15 4 -15 10 0 5 7 7 15 4 8 -4 15 -8 15 -10z
m40 6 c0 -5 -2 -10 -4 -10 -3 0 -8 5 -11 10 -3 6 -1 10 4 10 6 0 11 -4 11 -10z
m60 -101 c0 -5 -6 -9 -14 -9 -15 0 -26 21 -26 48 1 14 5 12 20 -7 11 -13 20
-27 20 -32z m-13 -66 c-3 -10 -5 -2 -5 17 0 19 2 27 5 18 2 -10 2 -26 0 -35z
m-1982 -33 c3 -5 -1 -10 -9 -10 -9 0 -16 5 -16 10 0 6 4 10 9 10 6 0 13 -4 16
-10z m2032 4 c-3 -3 -12 -4 -19 -1 -8 3 -5 6 6 6 11 1 17 -2 13 -5z m71 -101
c15 -32 16 -63 2 -63 -5 0 -10 14 -10 30 0 25 -4 30 -24 30 -13 0 -26 7 -30
15 -4 11 2 15 22 15 20 0 30 -8 40 -27z m-2290 -3 c11 -18 10 -20 -13 -20 -27
0 -28 1 -19 24 8 21 17 20 32 -4z m-48 -72 c0 -5 -7 -8 -15 -8 -17 0 -18 2 -9
25 5 13 8 14 15 3 5 -7 9 -16 9 -20z m2400 -108 c0 -8 -52 -21 -58 -15 -2 2
-1 13 3 24 5 17 9 19 31 9 13 -6 24 -14 24 -18z m-3133 -16 c-3 -3 -12 -4 -19
-1 -8 3 -5 6 6 6 11 1 17 -2 13 -5z m3213 -112 c0 -15 -2 -15 -10 -2 -13 20
-13 33 0 25 6 -3 10 -14 10 -23z m-3570 -32 c0 -5 -4 -10 -10 -10 -5 0 -10 5
-10 10 0 6 5 10 10 10 6 0 10 -4 10 -10z m3623 -15 c22 -16 19 -48 -4 -53 -9
-2 -24 4 -32 13 -9 8 -20 15 -26 15 -13 0 -13 3 -5 24 8 20 43 20 67 1z
m-3698 -2 c-11 -3 -24 -11 -28 -19 -4 -8 -17 -14 -28 -14 -11 0 -29 -5 -41
-11 -11 -6 -23 -8 -26 -4 -10 10 20 25 51 25 17 0 27 5 27 15 0 10 10 15 33
14 21 -1 25 -3 12 -6z m-445 -59 c0 -2 -7 -4 -15 -4 -8 0 -15 4 -15 10 0 5 7
7 15 4 8 -4 15 -8 15 -10z m271 -27 c-10 -9 -11 -8 -5 6 3 10 9 15 12 12 3 -3
0 -11 -7 -18z m3910 -17 l24 -19 -37 -1 c-41 0 -41 0 -32 24 8 21 17 20 45 -4z
m44 -107 c0 -27 -4 -38 -15 -38 -19 0 -27 65 -9 76 20 12 24 5 24 -38z m-4055
-48 c0 -8 -4 -15 -10 -15 -5 0 -10 7 -10 15 0 8 5 15 10 15 6 0 10 -7 10 -15z
m4108 -117 c2 -16 -3 -28 -12 -31 -10 -4 -13 -1 -10 7 3 7 -2 20 -10 29 -12
12 -13 17 -3 20 21 9 32 1 35 -25z m49 -118 c3 -11 10 -20 15 -20 5 0 6 -9 3
-20 -4 -13 -1 -22 9 -26 21 -8 21 -30 0 -38 -28 -11 -34 -6 -34 25 0 22 -5 32
-20 36 -29 8 -28 63 1 63 12 0 23 -8 26 -20z m63 -150 c0 -5 -4 -10 -10 -10
-5 0 -10 5 -10 10 0 6 5 10 10 10 6 0 10 -4 10 -10z m73 -150 c11 -30 26 -60
33 -68 8 -7 14 -23 14 -35 0 -12 7 -42 16 -66 8 -24 13 -45 11 -48 -9 -9 -57
21 -58 36 -5 76 -11 113 -24 137 -8 16 -15 39 -15 50 0 12 -7 24 -15 28 -21 8
-19 28 2 24 11 -2 25 -24 36 -58z m147 -354 c0 -18 -14 -34 -26 -29 -21 8 -17
33 6 33 11 0 20 -2 20 -4z m119 -321 c0 -18 -1 -17 -14 5 -8 14 -14 34 -14 45
0 18 1 17 14 -5 8 -14 14 -34 14 -45z m65 -134 c-7 -34 -13 -38 -32 -19 -17
17 -15 44 5 63 14 15 17 15 25 2 4 -8 5 -29 2 -46z m27 -86 c11 -4 19 -15 19
-29 0 -12 5 -27 11 -33 8 -8 7 -17 -3 -32 -20 -33 -28 -25 -21 24 5 41 4 45
-16 45 -17 0 -21 6 -20 33 1 17 3 24 6 15 2 -9 13 -20 24 -23z m89 -205 c0 -5
-2 -10 -4 -10 -3 0 -8 5 -11 10 -3 6 -1 10 4 10 6 0 11 -4 11 -10z m37 -152
c-3 -8 -6 -5 -6 6 -1 11 2 17 5 13 3 -3 4 -12 1 -19z m86 -139 c14 -10 -1 -29
-23 -29 -16 0 -40 26 -40 44 0 10 45 11 49 1 2 -5 8 -13 14 -16z m57 -150 c0
-6 -9 -13 -20 -16 -11 -3 -20 -10 -20 -16 0 -6 -6 -2 -14 9 -13 17 -12 20 12
25 41 10 42 10 42 -2z m40 -149 c0 -5 -4 -10 -10 -10 -5 0 -10 5 -10 10 0 6 5
10 10 10 6 0 10 -4 10 -10z m40 -69 c9 -23 9 -33 -2 -50 -15 -25 -24 -26 -45
-5 -19 19 -20 63 -2 75 24 15 36 10 49 -20z m55 -101 c-3 -6 -15 -10 -25 -10
-10 0 -21 -6 -23 -12 -4 -10 -8 -9 -16 2 -16 22 -9 45 17 48 12 2 22 9 22 15
0 6 7 1 16 -11 8 -12 12 -27 9 -32z"/>
<path d="M8931 7800 c-19 -11 -39 -27 -44 -35 -4 -8 -24 -22 -42 -29 -19 -8
-40 -20 -47 -26 -7 -5 -25 -19 -40 -31 -16 -11 -28 -26 -28 -34 0 -7 -5 -15
-10 -17 -6 -2 -11 -28 -13 -58 -2 -46 2 -60 21 -80 13 -14 30 -37 38 -52 8
-16 19 -28 24 -28 6 0 10 -11 10 -24 0 -68 28 -88 140 -101 30 -4 62 -9 71
-11 23 -6 49 22 49 54 0 17 13 41 35 65 19 20 42 53 51 72 9 19 20 35 25 35
16 0 38 69 40 123 3 62 -17 99 -61 117 -17 7 -30 18 -30 24 0 13 -70 42 -120
50 -24 3 -46 -1 -69 -14z"/>
<path d="M7828 7793 c7 -3 16 -2 19 1 4 3 -2 6 -13 5 -11 0 -14 -3 -6 -6z"/>
<path d="M6530 5588 c0 -4 4 -8 9 -8 6 0 12 4 15 8 3 5 -1 9 -9 9 -8 0 -15 -4
-15 -9z"/>
<path d="M4521 4474 c0 -11 3 -14 6 -6 3 7 2 16 -1 19 -3 4 -6 -2 -5 -13z"/>
<path d="M4750 4410 c0 -5 5 -10 10 -10 6 0 10 5 10 10 0 6 -4 10 -10 10 -5 0
-10 -4 -10 -10z"/>
<path d="M14255 6905 c-31 -10 -34 -13 -15 -13 14 0 43 5 65 13 31 10 34 13
15 13 -14 0 -43 -5 -65 -13z"/>
<path d="M14130 6880 c0 -5 7 -10 15 -10 8 0 15 5 15 10 0 6 -7 10 -15 10 -8
0 -15 -4 -15 -10z"/>
<path d="M966 3005 c-3 -9 0 -15 9 -15 8 0 15 7 15 15 0 8 -4 15 -9 15 -5 0
-11 -7 -15 -15z"/>
</g>
</svg>
